<svg width="365" height="200" viewBox="0 0 365 200" fill="none" xmlns="http://www.w3.org/2000/svg">
<g filter="url(#filter0_d_51_548)">
<g clip-path="url(#clip0_51_548)">
<rect x="15" y="11" width="335" height="170" rx="10" fill="#A1CEFF"/>
<path d="M15 7.20505V51.6498C18.0387 49.4958 20.0471 45.8039 20.0471 41.6057C20.0471 38.9631 19.2394 36.5307 17.8997 34.5458C19.1566 31.4748 19.8643 28.0851 19.8643 24.5162C19.8643 24.0312 19.847 23.555 19.8214 23.077C21.535 23.7364 23.3734 24.0967 25.2933 24.0967C25.87 24.0967 26.4383 24.0639 26.995 24.0028C29.0733 31.003 35.183 36.0713 42.4027 36.0713C50.8137 36.0713 57.721 29.1893 58.5083 20.3906C58.7858 20.3707 59.0597 20.3379 59.331 20.2945C58.9425 21.9865 58.7367 23.7541 58.7367 25.5744C58.7367 37.7681 67.955 47.6512 79.3282 47.6512C85.5189 47.6512 91.0647 44.7165 94.8398 40.0797C96.9456 41.2467 99.3381 41.9088 101.872 41.9088C106.036 41.9088 109.815 40.1257 112.578 37.2331C117.018 44.5643 124.711 49.4179 133.472 49.4179C147.229 49.4179 158.383 37.4579 158.383 22.7052C158.383 22.252 158.373 21.8006 158.353 21.3496C160.668 23.1726 163.524 24.2498 166.617 24.2498C169.035 24.2498 171.31 23.593 173.293 22.4375C176.835 26.1214 181.613 28.4489 186.892 28.6459C187.538 33.7668 191.62 37.7146 196.575 37.7146C201.975 37.7146 206.353 33.0207 206.353 27.2292C206.353 24.5237 205.387 22.0661 203.819 20.2056C205.798 17.501 207.2 14.2902 207.829 10.7841C207.896 10.4203 207.949 10.0561 208 9.68522V7.20505H15Z" fill="#DCEAF9"/>
<path d="M344.815 136.189C344.022 136.189 343.247 136.259 342.487 136.392C341.075 134.326 338.91 133 336.483 133C332.236 133 328.791 137.044 328.791 142.033C328.791 144.016 329.343 145.843 330.262 147.331C329.401 149.636 328.915 152.18 328.915 154.858C328.915 155.222 328.928 155.579 328.946 155.938C327.77 155.444 326.511 155.173 325.195 155.173C324.801 155.173 324.411 155.197 324.028 155.243C322.604 149.991 318.419 146.187 313.471 146.187C307.709 146.187 302.974 151.351 302.435 157.954C302.245 157.969 302.057 157.994 301.872 158.026C302.136 156.757 302.278 155.43 302.278 154.064C302.278 144.913 295.962 137.497 288.169 137.497C283.927 137.497 280.126 139.699 277.541 143.179C276.097 142.303 274.458 141.806 272.721 141.806C269.868 141.806 267.279 143.144 265.387 145.315C262.344 139.813 257.071 136.171 251.069 136.171C241.642 136.171 233.999 145.147 233.999 156.217C233.999 156.559 234.006 156.897 234.02 157.234C232.432 155.866 230.475 155.058 228.356 155.058C226.699 155.058 225.14 155.551 223.781 156.418C221.354 153.654 218.081 151.907 214.464 151.759C214.021 147.915 211.224 144.953 207.83 144.953C204.128 144.953 201.128 148.476 201.128 152.822C201.128 154.852 201.791 156.698 202.865 158.093C201.51 160.122 200.548 162.532 200.118 165.164C200.071 165.436 200.034 165.71 200 165.988V167.849L199.619 170.262C198.786 170.564 198.041 171.101 197.44 171.807C195.701 166.233 191.147 162.255 185.796 162.255C184.663 162.255 183.564 162.436 182.524 162.773C180.342 158.591 176.419 155.799 171.938 155.799C165.095 155.799 159.542 162.318 159.542 170.358C159.542 170.593 159.55 170.828 159.556 171.062C156.223 171.424 153.27 173.341 151.228 176.188C150.207 171.181 146.377 167.455 141.802 167.455C136.443 167.455 132.096 172.558 132.096 178.852C132.096 179.209 132.113 179.56 132.14 179.907H132V181.097H197.907H211.491H350V137.207C348.375 136.548 346.63 136.189 344.815 136.189Z" fill="#CCE0F2"/>
<path d="M207.074 100.806C206.732 93.9721 204.405 87.6615 200.658 82.4382C199.775 81.2077 198.813 80.0384 197.78 78.936C197.363 78.4905 196.929 78.0599 196.489 77.637C191.842 73.1736 185.955 69.9927 179.39 68.6763C178.44 68.4856 177.475 68.3356 176.498 68.2248C175.205 68.0778 173.891 68 172.559 68C170.366 68 168.222 68.2066 166.143 68.5969C163.448 69.1029 160.863 69.9204 158.427 71.0131C146.524 76.3533 138.195 88.2321 138.006 102.079C138.004 102.238 138 102.398 138 102.559C138 107.442 139.015 112.087 140.841 116.298C146.155 128.548 158.355 137.118 172.559 137.118C173.024 137.118 173.487 137.106 173.948 137.088C175.734 137.017 177.485 136.811 179.192 136.479C195.104 133.386 207.118 119.377 207.118 102.559C207.118 101.971 207.103 101.387 207.074 100.806Z" fill="#CAE0FC"/>
<path d="M207.105 100.806C205.98 101.629 204.274 102.296 203.337 102.559C202.619 102.761 201.035 102.861 200.353 102.559C199.647 102.246 198.856 101.054 198.206 100.22C198.025 99.9891 197.855 99.7838 197.701 99.6343C197.388 99.3298 196.649 98.839 196.375 98.4986C195.935 97.9494 195.101 96.715 195.05 96.0124C195.004 95.398 195.852 94.3075 195.878 93.6917C195.913 92.8784 195.023 91.3564 195.05 90.5426C195.071 89.888 195.347 88.4397 195.878 88.0566C196.281 87.7657 197.388 88.1894 197.867 88.0566C198.181 87.9696 198.679 87.8013 199.148 87.5788C199.723 87.306 200.256 86.952 200.353 86.5649C200.491 86.0184 199.579 84.9627 199.69 84.41C199.789 83.9202 200.192 83.0985 200.69 82.4387C199.807 81.2082 198.845 80.0389 197.812 78.9365C197.605 79.1916 197.434 79.4365 197.32 79.6551C197.269 79.7543 197.228 79.8483 197.204 79.9348C196.965 80.7878 198.376 82.6903 197.867 83.4155C197.265 84.2743 194.404 83.2803 193.723 84.0786C193.32 84.5515 194.163 86.1253 193.723 86.5649C193.401 86.8871 192.33 86.7173 191.9 86.5649C191.095 86.2792 189.883 84.9821 189.249 84.41C188.509 83.7427 186.931 82.4541 186.43 81.5924C185.956 80.7751 185.012 78.7901 185.436 77.9458C185.896 77.0311 188.969 77.4386 189.249 76.454C189.475 75.6567 188.032 74.1005 187.259 73.8019C186.236 73.4066 183.983 74.9998 182.95 74.6309C182.34 74.4131 181.639 73.1886 181.292 72.6419C180.795 71.8567 179.883 69.7638 179.422 68.677C178.471 68.4863 177.507 68.3364 176.53 68.2255C176.632 69.6723 176.668 71.4572 176.32 72.2276C175.66 73.6856 173.095 76.6932 171.513 76.4543C170.023 76.2293 169.235 72.5456 168.364 71.3159C167.941 70.7177 166.829 69.3786 166.174 68.5977C163.479 69.1037 160.894 69.9211 158.459 71.0139C158.882 71.4848 159.212 71.9566 159.248 72.3102C159.329 73.1234 157.141 74.4454 157.59 75.1281C157.958 75.6865 159.726 75.2201 160.242 74.7964C160.749 74.381 160.505 72.6389 161.071 72.3102C162.533 71.4616 166.564 72.386 167.701 73.6364C168.514 74.5299 168.695 77.3419 168.198 78.443C167.758 79.4179 165.786 80.8865 164.718 80.9293C163.993 80.9581 162.955 79.4084 162.231 79.4375C161.234 79.4778 159.739 81.2209 159.248 82.0896C158.916 82.6766 158.916 84.0878 158.751 84.7414C158.451 85.9229 157.7 88.2466 157.259 89.3825C156.863 90.4024 155.62 92.2825 155.436 93.3605C155.281 94.2628 156.289 96.2553 155.767 97.0074C155.497 97.3955 154.355 97.7373 153.944 97.5046C153.008 96.9738 153.641 94.0107 152.783 93.3605C152.189 92.9098 150.525 93.1852 149.8 93.3605C148.215 93.7442 144.99 95.0494 143.999 96.344C143.319 97.2321 143.208 100.028 143.999 100.819C144.38 101.2 145.615 100.819 146.154 100.819C147.107 100.819 149.458 100.013 149.966 100.819C150.578 101.792 147.871 103.819 147.977 104.963C148.041 105.662 148.936 107.168 149.634 107.226C150.442 107.293 151.204 105.269 151.955 104.963C152.914 104.573 155.366 104.231 156.099 104.963C156.499 105.363 156.05 106.663 156.099 107.226C156.182 108.186 156.024 110.403 156.762 111.022C157.46 111.609 159.519 111.224 160.408 111.022C161.483 110.779 163.307 109.348 164.386 109.125C165.482 108.898 167.749 109.248 168.861 109.125C170.001 108.997 172.19 108.129 173.337 108.113C174.646 108.094 177.218 108.756 178.475 109.125C179.715 109.488 181.99 111.041 183.282 111.022C184.522 111.005 186.939 109.457 188.202 110.381C189.351 111.222 189.329 113.681 189.249 114.818C189.229 115.103 189.216 115.447 189.203 115.826C189.151 117.417 189.108 119.633 188.586 120.71C188.026 121.862 185.433 123.127 184.939 124.308C184.39 125.622 184.509 128.404 183.841 129.66C183.043 131.16 180.102 132.298 179.304 133.798C179.037 134.299 179.135 135.665 179.223 136.481C195.136 133.387 207.149 119.378 207.149 102.56C207.149 101.971 207.134 101.387 207.105 100.806ZM157.425 103.43C156.29 103.33 153.896 102.491 153.281 101.532C153.117 101.277 153.019 100.473 153.281 100.321C154.163 99.8096 156.168 101.379 157.176 101.532C157.729 101.616 158.873 101.388 159.414 101.532C159.875 101.654 161.134 102.007 161.071 102.481C160.947 103.415 158.363 103.512 157.425 103.43ZM168.364 103.43C167.99 104.726 163.948 104.74 162.977 103.802C162.631 103.467 162.624 102.203 162.977 101.875C163.643 101.257 165.75 101.831 166.603 102.144C167.115 102.332 168.515 102.906 168.364 103.43ZM185.602 84.4095C185.287 84.8466 183.922 84.6636 183.447 84.4095C182.854 84.0923 182.034 82.8397 181.955 82.1719C181.834 81.1411 182.748 78.3207 183.778 78.4425C184.158 78.4875 184.133 80.6846 184.235 81.0526C184.55 82.1891 186.291 83.4528 185.602 84.4095Z" fill="#B5D3F4"/>
<path d="M172.937 124.951C171.014 124.499 167.949 124.901 166.541 124.307C164.349 123.382 159.897 120.78 158.916 118.613C158.525 117.749 158.513 115.676 158.916 114.817C159.259 114.086 161.676 113.512 161.402 112.752C161.022 111.7 158.008 113.043 156.927 112.752C156.094 112.529 154.633 111.539 153.944 111.021C153.394 110.609 152.618 109.304 151.955 109.123C151.093 108.888 149.361 110.043 148.474 109.935C146.303 109.67 142.297 107.432 140.684 105.957C139.955 105.29 138.884 103.56 138.037 102.078C138.035 102.238 138.031 102.398 138.031 102.559C138.031 107.441 139.046 112.086 140.873 116.298C146.186 128.548 158.386 137.118 172.59 137.118C173.056 137.118 173.518 137.106 173.979 137.087C173.713 135.979 173.408 134.486 173.502 133.796C173.644 132.753 175.223 131.048 175.325 130C175.438 128.847 175.022 126.294 174.165 125.515C173.868 125.246 173.441 125.069 172.937 124.951Z" fill="#B5D3F4"/>
<path d="M200.689 82.4382C200.191 83.0978 199.788 83.9197 199.689 84.4095C199.579 84.9622 200.49 86.0179 200.353 86.5644C200.255 86.9517 199.723 87.3058 199.147 87.5783C198.678 87.8008 198.18 87.9691 197.866 88.0561C197.387 88.1889 196.281 87.7652 195.877 88.0561C195.346 88.4392 195.07 89.8877 195.049 90.5421C195.023 91.3561 195.912 92.8779 195.877 93.6912C195.851 94.307 195.003 95.3975 195.049 96.0119C195.1 96.7145 195.934 97.9489 196.375 98.4981C196.648 98.8385 197.387 99.3295 197.7 99.6338C197.854 99.7835 198.024 99.9889 198.205 100.22C198.855 101.054 199.646 102.246 200.353 102.558C201.035 102.861 202.618 102.76 203.336 102.558C204.273 102.296 205.979 101.629 207.104 100.805C206.763 93.9719 204.436 87.6615 200.689 82.4382Z" fill="#FCFCFC"/>
<path d="M188.202 110.38C186.938 109.456 184.522 111.004 183.281 111.021C181.99 111.04 179.714 109.487 178.474 109.124C177.218 108.755 174.645 108.093 173.336 108.112C172.189 108.128 170.001 108.997 168.861 109.124C167.749 109.247 165.481 108.897 164.386 109.124C163.307 109.347 161.482 110.778 160.408 111.021C159.519 111.223 157.459 111.608 156.761 111.021C156.023 110.402 156.181 108.186 156.098 107.225C156.05 106.662 156.498 105.363 156.098 104.962C155.366 104.23 152.914 104.572 151.954 104.962C151.204 105.268 150.442 107.292 149.634 107.225C148.935 107.168 148.041 105.661 147.976 104.962C147.87 103.818 150.578 101.791 149.965 100.818C149.458 100.012 147.106 100.818 146.153 100.818C145.614 100.818 144.379 101.199 143.998 100.818C143.207 100.027 143.318 97.2311 143.998 96.343C144.99 95.0484 148.215 93.7432 149.8 93.3595C150.525 93.1842 152.189 92.9088 152.783 93.3595C153.64 94.0097 153.007 96.9728 153.943 97.5036C154.354 97.7363 155.497 97.3945 155.767 97.0064C156.289 96.2543 155.281 94.2618 155.435 93.3595C155.62 92.2815 156.862 90.4014 157.258 89.3815C157.699 88.2456 158.451 85.9219 158.75 84.7404C158.916 84.0868 158.915 82.6756 159.247 82.0886C159.739 81.2199 161.234 79.4768 162.231 79.4365C162.955 79.4074 163.993 80.9571 164.717 80.9283C165.786 80.8855 167.758 79.4169 168.198 78.442C168.695 77.3409 168.514 74.5289 167.701 73.6353C166.563 72.385 162.533 71.4606 161.071 72.3092C160.504 72.6379 160.748 74.38 160.242 74.7954C159.725 75.2191 157.957 75.6855 157.59 75.1271C157.141 74.4444 159.328 73.1224 159.247 72.3092C159.212 71.9556 158.881 71.4837 158.458 71.0128C146.556 76.3531 138.226 88.2319 138.037 102.078C138.884 103.56 139.955 105.29 140.683 105.957C142.297 107.432 146.303 109.67 148.474 109.935C149.36 110.043 151.092 108.888 151.954 109.123C152.617 109.304 153.394 110.609 153.943 111.021C154.633 111.539 156.094 112.529 156.927 112.752C158.007 113.043 161.022 111.7 161.402 112.752C161.676 113.512 159.259 114.086 158.916 114.817C158.513 115.676 158.525 117.749 158.916 118.613C159.897 120.78 164.349 123.382 166.54 124.307C167.949 124.901 171.013 124.499 172.937 124.951C173.441 125.069 173.868 125.246 174.165 125.515C175.022 126.294 175.438 128.847 175.325 130C175.223 131.048 173.644 132.753 173.502 133.796C173.408 134.486 174.102 138.364 174.368 139.473C176.154 139.403 177.516 136.811 179.223 136.479C179.134 135.663 179.036 134.297 179.303 133.796C180.101 132.297 183.042 131.159 183.84 129.659C184.509 128.402 184.389 125.62 184.939 124.307C185.433 123.125 188.025 121.861 188.585 120.708C189.107 119.632 189.15 117.416 189.202 115.824C189.215 115.445 189.228 115.101 189.248 114.817C189.328 113.68 189.351 111.22 188.202 110.38Z" fill="#FCFCFC"/>
<path d="M157.175 101.532C156.167 101.379 154.162 99.8098 153.28 100.321C153.018 100.473 153.116 101.277 153.28 101.532C153.895 102.491 156.289 103.33 157.424 103.43C158.362 103.512 160.946 103.415 161.07 102.481C161.133 102.008 159.874 101.655 159.413 101.532C158.872 101.388 157.728 101.616 157.175 101.532Z" fill="#FCFCFC"/>
<path d="M162.977 101.875C162.624 102.203 162.631 103.467 162.977 103.802C163.948 104.739 167.99 104.726 168.364 103.43C168.515 102.906 167.115 102.332 166.603 102.144C165.75 101.831 163.643 101.257 162.977 101.875Z" fill="#FCFCFC"/>
<path d="M171.513 76.4535C173.095 76.6924 175.66 73.6848 176.319 72.2269C176.668 71.4564 176.632 69.6718 176.53 68.2248C175.236 68.0778 173.922 68 172.59 68C170.397 68 168.253 68.2066 166.174 68.5969C166.829 69.3779 167.94 70.7167 168.364 71.3152C169.234 72.5449 170.023 76.2285 171.513 76.4535Z" fill="#FCFCFC"/>
<path d="M197.867 83.415C198.376 82.6898 196.964 80.7873 197.204 79.9342C197.228 79.8477 197.269 79.7537 197.32 79.6545C197.433 79.436 197.605 79.1914 197.812 78.936C197.394 78.4905 196.961 78.0599 196.521 77.637C191.874 73.1736 185.986 69.9927 179.422 68.6763C179.883 69.763 180.795 71.8559 181.292 72.6411C181.639 73.1878 182.34 74.4123 182.95 74.6301C183.983 74.999 186.236 73.4059 187.259 73.8012C188.032 74.0998 189.475 75.6559 189.249 76.4532C188.969 77.4378 185.896 77.0303 185.436 77.945C185.011 78.7893 185.956 80.7744 186.43 81.5916C186.931 82.4533 188.509 83.7419 189.249 84.4093C189.883 84.9813 191.095 86.2784 191.9 86.5641C192.33 86.7165 193.401 86.8863 193.723 86.5641C194.163 86.1245 193.32 84.5507 193.723 84.0778C194.404 83.2797 197.264 84.2738 197.867 83.415Z" fill="#FCFCFC"/>
<path d="M183.446 84.4095C183.921 84.6636 185.286 84.8466 185.601 84.4095C186.29 83.4528 184.549 82.189 184.234 81.0526C184.132 80.6846 184.157 78.4875 183.777 78.4425C182.747 78.3207 181.833 81.1411 181.954 82.1719C182.033 82.8394 182.853 84.0923 183.446 84.4095Z" fill="#FCFCFC"/>
<path d="M185.664 106.872H15.3356C15.1504 106.872 15 106.6 15 106.265C15 105.93 15.1504 105.659 15.3356 105.659H185.664C185.85 105.659 186 105.93 186 106.265C186 106.6 185.85 106.872 185.664 106.872Z" fill="#FFE98A"/>
<path d="M541.972 108.252C539.499 108.252 538.201 106.922 537.159 105.854C536.195 104.865 535.432 104.084 533.839 104.084C532.243 104.084 531.481 104.865 530.517 105.854C529.474 106.922 528.175 108.252 525.702 108.252C523.23 108.252 521.932 106.922 520.889 105.854C519.924 104.866 519.161 104.084 517.567 104.084C515.974 104.084 515.211 104.864 514.247 105.854C513.205 106.922 511.908 108.252 509.434 108.252C506.961 108.252 505.663 106.922 504.621 105.854C503.657 104.866 502.895 104.084 501.3 104.084C499.706 104.084 498.945 104.864 497.979 105.854C496.936 106.922 495.638 108.252 493.166 108.252C490.692 108.252 489.395 106.922 488.352 105.854C487.386 104.865 486.623 104.084 485.029 104.084C483.433 104.084 482.672 104.865 481.706 105.854C480.664 106.922 479.367 108.252 476.893 108.252C474.419 108.252 473.121 106.922 472.078 105.854C471.113 104.865 470.35 104.084 468.756 104.084C467.16 104.084 466.399 104.865 465.434 105.854C464.391 106.922 463.092 108.252 460.62 108.252C458.147 108.252 456.849 106.922 455.805 105.854C454.84 104.866 454.078 104.084 452.482 104.084C450.887 104.084 450.125 104.865 449.16 105.854C448.117 106.922 446.819 108.252 444.346 108.252C441.872 108.252 440.575 106.922 439.531 105.854C438.567 104.865 437.804 104.084 436.211 104.084C434.615 104.084 433.853 104.865 432.888 105.854C431.845 106.922 430.546 108.252 428.073 108.252C425.6 108.252 424.302 106.922 423.26 105.854C422.295 104.866 421.533 104.084 419.938 104.084C418.343 104.084 417.581 104.865 416.616 105.854C415.573 106.922 414.274 108.252 411.802 108.252C409.327 108.252 408.031 106.922 406.989 105.854C406.023 104.865 405.261 104.084 403.667 104.084C402.072 104.084 401.311 104.864 400.345 105.854C399.303 106.922 398.005 108.252 395.532 108.252C393.059 108.252 391.761 106.922 390.719 105.854C389.754 104.866 388.992 104.084 387.396 104.084C385.8 104.084 385.039 104.865 384.075 105.854C383.032 106.922 381.734 108.252 379.262 108.252C376.788 108.252 375.491 106.922 374.449 105.854C373.484 104.865 372.721 104.084 371.128 104.084C369.533 104.084 368.771 104.864 367.806 105.854C366.763 106.922 365.465 108.252 362.992 108.252C360.519 108.252 359.221 106.922 358.177 105.854C357.213 104.866 356.45 104.084 354.856 104.084C353.26 104.084 352.498 104.864 351.534 105.854C350.491 106.922 349.193 108.252 346.721 108.252C344.249 108.252 342.952 106.922 341.908 105.854C340.943 104.866 340.181 104.084 338.587 104.084C336.992 104.084 336.23 104.864 335.266 105.854C334.222 106.922 332.926 108.252 330.452 108.252C327.979 108.252 326.681 106.922 325.638 105.854C324.674 104.866 323.911 104.084 322.316 104.084C320.723 104.084 319.961 104.864 318.996 105.854C317.953 106.922 316.655 108.252 314.183 108.252C311.71 108.252 310.412 106.922 309.37 105.854C308.405 104.865 307.642 104.084 306.05 104.084C304.456 104.084 303.693 104.864 302.73 105.854C301.686 106.922 300.389 108.252 297.917 108.252C295.443 108.252 294.146 106.922 293.104 105.854C292.139 104.866 291.377 104.084 289.782 104.084C288.187 104.084 287.425 104.865 286.459 105.854C285.416 106.922 284.118 108.252 281.645 108.252C279.172 108.252 277.876 106.922 276.832 105.854C275.866 104.865 275.105 104.084 273.511 104.084C271.917 104.084 271.156 104.864 270.192 105.854C269.15 106.922 267.852 108.252 265.379 108.252C262.906 108.252 261.608 106.922 260.566 105.854C259.601 104.865 258.838 104.084 257.245 104.084C255.65 104.084 254.888 104.865 253.923 105.854C252.88 106.922 251.583 108.252 249.11 108.252C246.637 108.252 245.339 106.922 244.297 105.854C243.333 104.866 242.57 104.084 240.976 104.084C239.381 104.084 238.619 104.864 237.655 105.854C236.613 106.922 235.315 108.252 232.842 108.252C230.369 108.252 229.072 106.922 228.03 105.854C227.064 104.865 226.302 104.084 224.709 104.084C223.115 104.084 222.353 104.865 221.39 105.854C220.348 106.922 219.05 108.252 216.578 108.252C214.104 108.252 212.807 106.922 211.765 105.854C210.8 104.865 210.038 104.084 208.444 104.084C206.85 104.084 206.088 104.864 205.123 105.854C204.08 106.922 202.782 108.252 200.31 108.252C197.837 108.252 196.539 106.922 195.497 105.854C194.533 104.866 193.77 104.084 192.176 104.084C190.581 104.084 189.819 104.864 188.855 105.854C187.813 106.922 186.515 108.252 184.042 108.252C183.466 108.252 183 107.786 183 107.21C183 106.634 183.466 106.168 184.042 106.168C185.636 106.168 186.399 105.388 187.363 104.398C188.405 103.33 189.702 102 192.176 102C194.65 102 195.946 103.33 196.99 104.398C197.954 105.387 198.716 106.168 200.31 106.168C201.905 106.168 202.666 105.388 203.632 104.398C204.675 103.33 205.973 102 208.445 102C210.918 102 212.216 103.33 213.258 104.398C214.224 105.387 214.986 106.168 216.579 106.168C218.172 106.168 218.933 105.388 219.897 104.398C220.939 103.33 222.237 102 224.71 102C227.183 102 228.481 103.33 229.523 104.398C230.488 105.387 231.25 106.168 232.843 106.168C234.437 106.168 235.199 105.388 236.164 104.398C237.206 103.33 238.503 102 240.977 102C243.451 102 244.748 103.33 245.791 104.398C246.755 105.387 247.517 106.168 249.111 106.168C250.706 106.168 251.468 105.388 252.433 104.398C253.476 103.33 254.774 102 257.247 102C259.72 102 261.018 103.33 262.06 104.398C263.026 105.387 263.787 106.168 265.381 106.168C266.974 106.168 267.736 105.388 268.7 104.398C269.743 103.33 271.04 102 273.513 102C275.986 102 277.283 103.33 278.326 104.398C279.291 105.386 280.054 106.168 281.647 106.168C283.242 106.168 284.004 105.388 284.969 104.398C286.012 103.33 287.31 102 289.783 102C292.257 102 293.555 103.33 294.598 104.398C295.562 105.387 296.324 106.168 297.919 106.168C299.514 106.168 300.276 105.387 301.24 104.398C302.283 103.33 303.581 102 306.053 102C308.524 102 309.821 103.33 310.865 104.398C311.831 105.386 312.592 106.168 314.187 106.168C315.782 106.168 316.544 105.387 317.508 104.398C318.551 103.33 319.848 102 322.321 102C324.794 102 326.092 103.33 327.136 104.398C328.1 105.386 328.863 106.168 330.458 106.168C332.053 106.168 332.816 105.387 333.78 104.398C334.823 103.33 336.121 102 338.594 102C341.067 102 342.364 103.33 343.407 104.398C344.372 105.387 345.134 106.168 346.727 106.168C348.322 106.168 349.084 105.388 350.048 104.398C351.092 103.33 352.389 102 354.862 102C357.335 102 358.633 103.33 359.677 104.398C360.641 105.386 361.403 106.168 362.998 106.168C364.593 106.168 365.355 105.387 366.321 104.398C367.364 103.33 368.662 102 371.135 102C373.607 102 374.904 103.33 375.948 104.398C376.914 105.387 377.675 106.168 379.27 106.168C380.865 106.168 381.626 105.388 382.59 104.398C383.633 103.33 384.931 102 387.404 102C389.879 102 391.175 103.33 392.219 104.398C393.184 105.387 393.946 106.168 395.541 106.168C397.135 106.168 397.898 105.388 398.862 104.398C399.905 103.33 401.203 102 403.675 102C406.148 102 407.446 103.33 408.489 104.398C409.453 105.386 410.216 106.168 411.811 106.168C413.406 106.168 414.169 105.387 415.133 104.398C416.176 103.33 417.475 102 419.948 102C422.423 102 423.719 103.33 424.762 104.398C425.727 105.387 426.489 106.168 428.083 106.168C429.679 106.168 430.44 105.387 431.406 104.398C432.449 103.33 433.748 102 436.221 102C438.694 102 439.99 103.33 441.033 104.398C441.998 105.386 442.76 106.168 444.355 106.168C445.952 106.168 446.713 105.387 447.677 104.398C448.721 103.33 450.019 102 452.492 102C454.965 102 456.263 103.33 457.306 104.398C458.271 105.386 459.034 106.168 460.629 106.168C462.224 106.168 462.986 105.387 463.951 104.398C464.994 103.33 466.292 102 468.765 102C471.238 102 472.537 103.33 473.58 104.398C474.544 105.386 475.308 106.168 476.903 106.168C478.498 106.168 479.26 105.388 480.224 104.398C481.267 103.33 482.565 102 485.038 102C487.511 102 488.809 103.33 489.853 104.398C490.818 105.386 491.581 106.168 493.176 106.168C494.771 106.168 495.533 105.387 496.498 104.398C497.541 103.33 498.838 102 501.311 102C503.785 102 505.083 103.33 506.126 104.398C507.09 105.387 507.853 106.168 509.446 106.168C511.04 106.168 511.801 105.388 512.767 104.398C513.809 103.33 515.107 102 517.579 102C520.052 102 521.35 103.33 522.392 104.398C523.358 105.387 524.12 106.168 525.713 106.168C527.309 106.168 528.07 105.387 529.035 104.398C530.078 103.33 531.376 102 533.85 102C536.323 102 537.62 103.33 538.662 104.398C539.627 105.387 540.389 106.168 541.983 106.168C543.577 106.168 544.34 105.388 545.305 104.398C546.348 103.33 547.647 102 550.12 102C550.695 102 551.162 102.466 551.162 103.042C551.162 103.617 550.695 104.084 550.12 104.084C548.524 104.084 547.762 104.865 546.796 105.854C545.743 106.922 544.445 108.252 541.972 108.252Z" fill="#FFE98A"/>
<path d="M52.9362 93.3804L49.2317 92H30.95V93.3804H26.8557H24.5227L23.9512 96.0468V102.189H65.9189V93.3804H52.9362Z" fill="#C5211B"/>
<path d="M30.9501 93.9162H27.665V95.6211H30.9501V93.9162Z" fill="#FFE98A"/>
<path d="M35.0682 93.9162H31.7832V95.6211H35.0682V93.9162Z" fill="#D4D7C9"/>
<path d="M30.9449 93.3804V92.0008C28.7612 92.0048 25.1185 92.0008 24.5234 93.3804H30.9449Z" fill="#4D4441"/>
<path d="M49.7803 93.3796V92C49.9047 92.0004 59.7524 92.0004 59.8849 92.0008C62.0873 92.0081 65.3587 92.0788 65.9199 93.3796H49.7803Z" fill="#4D4441"/>
<path d="M31.7833 92H30.9502V102.189H31.7833V92Z" fill="#D14D49"/>
<path d="M46.2803 102.189H35.0684V92H35.9015L46.2803 102.189Z" fill="#D14D49"/>
<path d="M48.9462 93.9162H45.6611V95.6211H48.9462V93.9162Z" fill="#D4D7C9"/>
<path d="M53.0657 93.9162H49.7803V95.6211H53.0657V93.9162Z" fill="#D4D7C9"/>
<path d="M49.7794 92H48.9463V102.189H49.7794V92Z" fill="#D14D49"/>
<path d="M26.4034 93.9162H24.9123L24.5469 95.6211H26.4034V93.9162Z" fill="#FFE98A"/>
<path d="M24.0983 98.6651V96.0469H22.3809V102.189H24.0983H65.9196V98.6651H24.0983Z" fill="#941914"/>
<path d="M22.3807 98.6651H21V103.593H22.3807V98.6651Z" fill="#3A3331"/>
<path d="M26.737 103.926C26.737 104.886 25.9591 105.664 24.9994 105.664C24.0396 105.664 23.2617 104.886 23.2617 103.926C23.2617 102.967 24.0396 102.188 24.9994 102.188C25.9591 102.188 26.737 102.967 26.737 103.926Z" fill="#3A3331"/>
<path d="M31.9499 103.926C31.9499 104.886 31.172 105.664 30.2123 105.664C29.2525 105.664 28.4746 104.886 28.4746 103.926C28.4746 102.967 29.2525 102.188 30.2123 102.188C31.172 102.189 31.9499 102.967 31.9499 103.926Z" fill="#3A3331"/>
<path d="M37.1628 103.926C37.1628 104.886 36.3849 105.664 35.4251 105.664C34.4654 105.664 33.6875 104.886 33.6875 103.926C33.6875 102.967 34.4654 102.188 35.4251 102.188C36.3849 102.189 37.1628 102.967 37.1628 103.926Z" fill="#3A3331"/>
<path d="M54.3444 103.926C54.3444 104.886 53.5661 105.664 52.6064 105.664C51.6467 105.664 50.8691 104.886 50.8691 103.926C50.8691 102.967 51.6467 102.188 52.6064 102.188C53.5661 102.189 54.3444 102.967 54.3444 103.926Z" fill="#3A3331"/>
<path d="M59.5577 103.926C59.5577 104.886 58.7798 105.664 57.82 105.664C56.8603 105.664 56.082 104.886 56.082 103.926C56.082 102.967 56.8603 102.188 57.82 102.188C58.7798 102.189 59.5577 102.967 59.5577 103.926Z" fill="#3A3331"/>
<path d="M64.7702 103.926C64.7702 104.886 63.9919 105.664 63.0326 105.664C62.0729 105.664 61.2949 104.886 61.2949 103.926C61.2949 102.967 62.0729 102.188 63.0326 102.188C63.9919 102.189 64.7702 102.967 64.7702 103.926Z" fill="#3A3331"/>
<path d="M73.8175 103.926C73.8175 104.886 73.0395 105.664 72.0798 105.664C71.1201 105.664 70.3418 104.886 70.3418 103.926C70.3418 102.967 71.1201 102.188 72.0798 102.188C73.0395 102.189 73.8175 102.967 73.8175 103.926Z" fill="#3A3331"/>
<path d="M79.031 103.926C79.031 104.886 78.2527 105.664 77.2933 105.664C76.3336 105.664 75.5557 104.886 75.5557 103.926C75.5557 102.967 76.3332 102.188 77.2933 102.188C78.2527 102.189 79.031 102.967 79.031 103.926Z" fill="#3A3331"/>
<path d="M84.2438 103.926C84.2438 104.886 83.4659 105.664 82.5066 105.664C81.5469 105.664 80.7686 104.886 80.7686 103.926C80.7686 102.967 81.5465 102.188 82.5066 102.188C83.4659 102.189 84.2438 102.967 84.2438 103.926Z" fill="#3A3331"/>
<path d="M101.425 103.926C101.425 104.886 100.647 105.664 99.6872 105.664C98.7275 105.664 97.9492 104.886 97.9492 103.926C97.9492 102.967 98.7272 102.188 99.6872 102.188C100.647 102.189 101.425 102.967 101.425 103.926Z" fill="#3A3331"/>
<path d="M106.637 103.926C106.637 104.886 105.859 105.664 104.9 105.664C103.94 105.664 103.162 104.886 103.162 103.926C103.162 102.967 103.94 102.188 104.9 102.188C105.859 102.189 106.637 102.967 106.637 103.926Z" fill="#3A3331"/>
<path d="M111.85 103.926C111.85 104.886 111.073 105.664 110.113 105.664C109.153 105.664 108.375 104.886 108.375 103.926C108.375 102.967 109.153 102.188 110.113 102.188C111.073 102.189 111.85 102.967 111.85 103.926Z" fill="#3A3331"/>
<path d="M65.9196 102.189H65.3481H22.3809V103.593H65.3481H65.9196H113V102.189H65.9196Z" fill="#4D4441"/>
<path d="M96.8606 102.189H85.5059V104.807H96.8606V102.189Z" fill="#3A3331"/>
<path d="M64.1459 102.189H63.2889C63.2889 100.535 61.9432 99.1895 60.2898 99.1895H28.0105C26.3567 99.1895 25.0113 100.535 25.0113 102.189H24.1543C24.1543 100.062 25.8842 98.3321 28.0105 98.3321H60.2898C62.416 98.3317 64.1459 100.062 64.1459 102.189Z" fill="#D4D7C9"/>
<path d="M110.138 92H72.0801V102.189H110.138V92Z" fill="#FFDF57"/>
<path d="M110.114 92H72.0801V93.3804H76.4654V102.189H77.8465V93.3804H82.0762V102.189H83.4572V93.3804H87.6876V102.189H89.0683V93.3804H93.2984V102.189H94.6791V93.3804H98.9095V102.189H100.29V93.3804H104.521V102.189H105.901V93.3804H110.114V92Z" fill="#7FCAD7"/>
<path d="M49.7795 102.189H38.4248V104.807H49.7795V102.189Z" fill="#3A3331"/>
<path d="M134.773 101.822H120.806V104.496H134.773V101.822Z" fill="#4D4441"/>
<path d="M116.284 94.5199L113.588 99.5076V104.495H115.122C115.122 103.35 116.051 102.421 117.197 102.421C118.342 102.421 119.271 103.35 119.271 104.495H120.805V94.5199H116.284Z" fill="#FFE98A"/>
<path d="M119.81 100.45C119.81 100.568 119.714 100.663 119.596 100.663H118.448C118.33 100.663 118.234 100.568 118.234 100.45C118.234 100.332 118.33 100.237 118.448 100.237H119.596C119.714 100.236 119.81 100.332 119.81 100.45Z" fill="#4D4441"/>
<path d="M115.391 103.474H113V103.996C113 104.271 113.224 104.496 113.5 104.496H115.122C115.122 104.124 115.22 103.776 115.391 103.474Z" fill="#4D4441"/>
<path d="M117.196 102.421C116.422 102.421 115.747 102.846 115.391 103.474C115.22 103.776 115.122 104.124 115.122 104.496H115.146H119.27C119.27 103.35 118.342 102.421 117.196 102.421Z" fill="#4D4441"/>
<path d="M115.692 104.496C115.692 105.327 116.366 106 117.196 106C118.027 106 118.701 105.326 118.701 104.496C118.701 103.665 118.027 102.991 117.196 102.991C116.366 102.991 115.692 103.665 115.692 104.496Z" fill="#342E2C"/>
<path d="M118.068 104.496C118.068 104.977 117.678 105.368 117.196 105.368V103.623C117.678 103.623 118.068 104.014 118.068 104.496Z" fill="#D4D7C9"/>
<path d="M117.196 103.623V105.368C116.715 105.368 116.324 104.977 116.324 104.496C116.325 104.014 116.715 103.623 117.196 103.623Z" fill="#F1F0F0"/>
<path d="M116.907 95.6125L114.802 99.5079H115.913L119.809 95.6125H116.907Z" fill="#F1F0F0"/>
<path d="M119.809 95.6124L115.913 99.5078H119.809V95.6124Z" fill="#D4D7C9"/>
<path d="M129.658 104.496C129.658 105.327 130.332 106 131.162 106C131.993 106 132.666 105.326 132.666 104.496C132.666 103.665 131.993 102.991 131.162 102.991C130.332 102.991 129.658 103.665 129.658 104.496Z" fill="#342E2C"/>
<path d="M132.034 104.496C132.034 104.977 131.643 105.368 131.162 105.368V103.623C131.644 103.623 132.034 104.014 132.034 104.496Z" fill="#D4D7C9"/>
<path d="M131.162 103.623V105.368C130.681 105.368 130.29 104.977 130.29 104.496C130.29 104.014 130.681 103.623 131.162 103.623Z" fill="#F1F0F0"/>
<path d="M120.806 93V97.6414V102.428L136.077 93H120.806Z" fill="#C5211B"/>
<path d="M120.806 102.428H136.077V97.6414V93L120.806 102.428Z" fill="#941914"/>
<path d="M128.943 104.496H127.467V103.213L127.309 102.861L128.943 104.496Z" fill="#3A3331"/>
<path d="M127.467 103.213C127.467 102.95 127.254 102.738 126.992 102.738H122.862C122.599 102.738 122.387 102.95 122.387 103.213V103.926H127.467V103.213Z" fill="#F1F0F0"/>
<path d="M122.387 103.926V104.639C122.387 104.901 122.599 105.113 122.862 105.113H126.992C127.254 105.113 127.467 104.901 127.467 104.639V103.926H122.387Z" fill="#D4D7C9"/>
<path d="M127.467 103.759H126.287V102.738H125.954V103.759H123.899V102.738H123.567V103.759H122.387V104.092H123.567V105.113H123.899V104.092H125.954V105.113H126.287V104.092H127.467V103.759Z" fill="#FAFEFF"/>
<path d="M269.46 73H267.287V85.7449H269.46V73Z" fill="#9FA197"/>
<path d="M329.121 90.0459H319.562L309.795 84.0989H265.736V90.0459H254.664V97.9605L332.305 99.1053L329.121 90.0459Z" fill="#FFE98A"/>
<path d="M287.634 95.463L244 90.9959L255.403 102.664H341V95.463H287.634Z" fill="#2E5AB5"/>
<path d="M280.707 79.2979H274.423V84.04H280.707V79.2979Z" fill="#C5211B"/>
<path d="M274.423 76.1249V79.2979H280.707L277.566 76.1249H274.423Z" fill="#342E2C"/>
<path d="M305.026 79.2979H298.742V84.04H305.026V79.2979Z" fill="#C5211B"/>
<path d="M298.742 76.1249V79.2979H305.026L301.883 76.1249H298.742Z" fill="#342E2C"/>
<path d="M260.689 96.0278H257.121V97.6313H260.689V96.0278Z" fill="#C5211B"/>
<path d="M266.042 96.0278H262.475V97.6313H266.042V96.0278Z" fill="#C5211B"/>
<path d="M271.395 96.0278H267.827V97.6313H271.395V96.0278Z" fill="#C5211B"/>
<path d="M316.06 89.8315H274.423V91.4334H316.06V89.8315Z" fill="#7FCAD7"/>
<path d="M310.107 86.6611H274.423V88.263H310.107V86.6611Z" fill="#7FCAD7"/>
<path d="M225.184 83.241H204.421V95.3841H225.184V83.241Z" fill="#342E2C"/>
<path d="M241 92.2566C241 94.3171 239.329 95.9886 237.269 95.9886H236.44C234.378 95.9886 232.707 94.3178 232.707 92.2566V89.6713C232.707 87.6114 234.377 85.9412 236.44 85.9412H237.269C239.329 85.9412 241 87.6108 241 89.6713V92.2566Z" fill="#342E2C"/>
<path d="M212.378 82C211.694 82 211.001 82.037 210.304 82.1001C204.324 82.6486 198.025 85.3774 194.051 87.4054C191.552 88.6809 189.966 89.6789 189.966 89.6789H207.811C213.791 89.1317 220.089 86.4042 224.063 84.3749C225.127 83.8309 224.735 84.0426 225.419 83.6645C227.304 82.6205 226.949 82.0874 226.176 82.0874C225.923 82.0874 212.378 82 212.378 82Z" fill="#FFE98A"/>
<path d="M209.944 83.7914C209.539 83.7914 209.132 83.8105 208.72 83.8487C205.193 84.1727 201.48 85.783 199.136 86.9774C197.663 87.7306 196.729 88.3192 196.729 88.3192H207.25C210.776 87.9953 214.489 86.3876 216.834 85.1912C218.306 84.438 219.241 83.8494 219.241 83.8494L209.944 83.7914Z" fill="#342E2C"/>
<path d="M192.167 101.085H234.628L236.011 95.0269H180.282C182.727 97.991 186.606 101.085 192.167 101.085Z" fill="#941914"/>
<path d="M228.827 89.6795H177C177 89.6795 178.032 92.2993 180.282 95.0275H236.01C236.41 92.0806 233.407 89.6795 228.827 89.6795Z" fill="#2E5AB5"/>
<path d="M173.222 97.7118H142.918V101.987H173.222V97.7118Z" fill="#4D4441"/>
<path d="M164.062 102.801C164.062 104.665 165.572 106.176 167.436 106.176C169.3 106.176 170.811 104.666 170.811 102.801C170.811 100.939 169.3 99.4264 167.436 99.4264C165.573 99.4264 164.062 100.939 164.062 102.801Z" fill="#342E2C"/>
<path d="M145.609 102.788C145.609 104.652 147.12 106.163 148.984 106.163C150.847 106.163 152.358 104.653 152.358 102.788C152.358 100.926 150.847 99.4146 148.984 99.4146C147.12 99.4146 145.609 100.925 145.609 102.788Z" fill="#342E2C"/>
<path d="M150.139 93.1951C151.535 92.1778 152.429 91.7028 153.785 91.7028H159.989H166.194C167.55 91.7028 168.444 92.1778 169.841 93.1951C171.16 94.1563 175 96.8926 175 96.8926L159.99 96.8939L144.981 96.8926C144.981 96.8926 148.818 94.1556 150.139 93.1951Z" fill="#C5211B"/>
<path d="M165.343 92.954C166.274 92.954 166.888 93.2558 167.846 93.8996C168.752 94.5096 170.289 95.6689 170.289 95.6689H159.99H158.951L161.665 92.954H165.343Z" fill="#D4D7C9"/>
<path d="M152.131 93.8996C153.09 93.2557 153.703 92.954 154.634 92.954H160.046H161.666L158.952 95.6689H149.691C149.691 95.6689 151.226 94.5095 152.131 93.8996Z" fill="#F1F0F0"/>
<path d="M169.393 102.801C169.393 103.881 168.516 104.758 167.436 104.758V100.845C168.516 100.845 169.393 101.722 169.393 102.801Z" fill="#D4D7C9"/>
<path d="M167.436 100.845V104.758C166.356 104.758 165.479 103.881 165.479 102.801C165.479 101.722 166.356 100.845 167.436 100.845Z" fill="#F1F0F0"/>
<path d="M150.939 102.788C150.939 103.869 150.063 104.745 148.983 104.745V100.833C150.064 100.833 150.939 101.709 150.939 102.788Z" fill="#D4D7C9"/>
<path d="M148.984 100.833V104.745C147.903 104.745 147.027 103.869 147.027 102.788C147.027 101.708 147.903 100.833 148.984 100.833Z" fill="#F1F0F0"/>
<path d="M175 102.788H171.676C171.672 101.529 171.118 100.4 170.243 99.6258H175V102.788Z" fill="#C5211B"/>
<path d="M142.332 96.8927H153.223H163.197H174.999V99.6258H170.243C169.495 98.9637 168.513 98.5616 167.435 98.5616C166.36 98.5616 165.377 98.9637 164.628 99.6258C163.754 100.4 163.2 101.529 163.196 102.788H153.223C153.223 101.531 152.674 100.403 151.805 99.6258C151.055 98.9559 150.066 98.5493 148.983 98.5493C147.899 98.5493 146.911 98.9559 146.161 99.6258H141V98.3244C141 98.3244 141.001 96.8927 142.332 96.8927Z" fill="#FFE98A"/>
<path d="M146.162 99.6258C145.293 100.402 144.744 101.531 144.744 102.788H141.001V99.6258H146.162Z" fill="#C5211B"/>
<path d="M66.3906 60.2424C66.3235 62.2907 69.1181 64.0661 71.5589 64.146L73.4195 64.207L90.3647 64.7621L103.184 65.182C106.242 65.2822 108.265 64.2472 108.265 64.2472L108.956 63.9429L106.728 61.5638L66.3906 60.2424Z" fill="#941914"/>
<path d="M106.729 61.5637L108.957 63.9428L113.842 61.7968L106.729 61.5637Z" fill="#6E2632"/>
<path d="M100.434 65.0839L88.6604 64.7062L88.7415 62.2288L97.1609 61.5895L100.434 65.0839Z" fill="#6E2632"/>
<path d="M117.34 56.6201L73.7149 55.191L73.7146 55.2001L73.6445 55.1978C72.0387 55.1452 70.497 55.7786 69.2504 56.6401L71.6418 56.7185C71.9319 56.728 72.1588 56.9709 72.1494 57.2604C72.1399 57.5498 71.897 57.7768 71.6075 57.7673L68.0161 57.6496C67.0289 58.6026 66.4119 59.614 66.3913 60.2424L106.729 61.5638L105.063 59.7857L115.169 60.1168L115.897 60.8941L117.454 60.2099C117.638 60.1159 117.796 60.0259 117.936 59.9383L118.041 56.7248C117.845 56.6683 117.613 56.629 117.34 56.6201Z" fill="#D4D7C9"/>
<path d="M72.1487 57.2598C72.1582 56.9697 71.9307 56.7274 71.6412 56.7179L69.2498 56.6395C68.7947 56.9535 68.3796 57.2974 68.0154 57.6497L71.6068 57.7673C71.8969 57.7768 72.1392 57.5499 72.1487 57.2598Z" fill="#342E2C"/>
<path d="M118.943 57.5676C118.945 57.3218 118.698 56.9165 118.04 56.7248L117.935 59.9383C118.792 59.4088 118.887 59.0355 118.905 58.7457C118.922 58.432 118.941 57.8787 118.943 57.5676Z" fill="#342E2C"/>
<path d="M113.889 46.8579L106.789 56.2745L114.307 56.5208L116.879 46.9559L113.889 46.8579Z" fill="#FFE98A"/>
<path d="M117.737 48.0339L114.782 47.9371C114.186 47.9176 113.685 48.3862 113.666 48.9822L118.783 49.1499C118.803 48.5538 118.334 48.0535 117.737 48.0339Z" fill="#D4D7C9"/>
<path d="M88.6175 66.0079L88.8513 65.9844C89.7695 65.7985 90.5468 65.5183 90.5713 64.7681L88.6602 64.7055L88.6175 66.0079Z" fill="#4D4441"/>
<path d="M88.9349 63.4431L88.7031 63.4038L88.6605 64.7062L90.5716 64.7688C90.5933 64.1082 89.8135 63.7013 88.9349 63.4431Z" fill="#342E2C"/>
<path d="M97.4006 62.5125C97.4321 61.5533 96.6793 60.7489 95.7201 60.7175L85.8826 60.3953C84.9392 60.3644 84.1492 61.0907 84.0923 62.0272C84.091 62.0271 84.0904 62.0271 84.0892 62.0271L84.0065 64.5531L88.6607 64.7056L88.7034 63.4033L88.7418 62.2283L97.4007 62.5119L97.4006 62.5125Z" fill="#FFE98A"/>
<path d="M84.0068 64.5538L83.9241 67.0799C84.0446 67.1076 84.1745 67.1271 84.3214 67.1319L88.5952 66.6978L88.6178 66.0086L88.6605 64.7062L84.0068 64.5538Z" fill="#1F7D8D"/>
<path d="M84.0889 62.0276C83.0352 62.1981 82.8661 63.2456 82.8245 64.515L84.0062 64.5537L84.0889 62.0276Z" fill="#C5211B"/>
<path d="M82.8242 64.5151C82.7826 65.7851 82.8829 66.8408 83.9232 67.0799L84.0059 64.5538L82.8242 64.5151Z" fill="#941914"/>
<path d="M113.339 55.0955C113.168 55.2565 112.896 55.2476 112.736 55.0758L110.796 53.005C110.635 52.8332 110.644 52.562 110.816 52.4005C110.988 52.2396 111.26 52.2485 111.421 52.4203L113.359 54.491C113.521 54.6628 113.513 54.9328 113.339 55.0955Z" fill="#C5211B"/>
<path d="M114.512 53.4215C114.34 53.583 114.069 53.5741 113.907 53.4017L111.969 51.3316C111.807 51.1597 111.816 50.8879 111.988 50.727C112.16 50.5661 112.431 50.575 112.592 50.7468L114.531 52.8169C114.693 52.9894 114.684 53.26 114.512 53.4215Z" fill="#C5211B"/>
<path d="M115.739 51.1963L113.666 48.9821L116.311 49.0688L115.739 51.1963Z" fill="#1F7D8D"/>
<path d="M75.0512 59.2156C75.0432 59.4599 74.8386 59.6521 74.5936 59.6441L73.7118 59.6152C73.4668 59.6072 73.2752 59.4026 73.2832 59.1576L73.3468 57.2166C73.3548 56.9722 73.5594 56.78 73.8044 56.7881L74.6862 56.8169C74.9306 56.825 75.1228 57.0295 75.1148 57.2745L75.0512 59.2156Z" fill="#9FA197"/>
<path d="M77.3069 57.7148C77.3023 57.855 77.1852 57.9658 77.0444 57.9612L76.5386 57.9447C76.3984 57.9401 76.2882 57.8218 76.2928 57.6816L76.311 57.1252C76.3156 56.9856 76.4333 56.8748 76.5735 56.8794L77.0793 56.8959C77.2201 56.9006 77.3297 57.0188 77.3251 57.1584L77.3069 57.7148Z" fill="#342E2C"/>
<path d="M79.3362 57.7812C79.3316 57.9214 79.2139 58.0322 79.0737 58.0277L78.5673 58.0111C78.4271 58.0065 78.3175 57.8882 78.3221 57.748L78.3403 57.1916C78.3449 57.052 78.462 56.9412 78.6022 56.9458L79.1086 56.9624C79.2488 56.967 79.359 57.0853 79.3544 57.2248L79.3362 57.7812Z" fill="#342E2C"/>
<path d="M81.3651 57.8478C81.3605 57.9879 81.2428 58.0988 81.1026 58.0942L80.5962 58.0776C80.456 58.073 80.3458 57.9547 80.3504 57.8145L80.3686 57.2581C80.3732 57.1186 80.4909 57.0077 80.6311 57.0123L81.1375 57.0289C81.2777 57.0335 81.3879 57.1518 81.3833 57.2914L81.3651 57.8478Z" fill="#342E2C"/>
<path d="M83.3944 57.9142C83.3898 58.0543 83.2721 58.1652 83.1319 58.1606L82.6255 58.144C82.4853 58.1394 82.3751 58.0211 82.3797 57.8809L82.3979 57.3245C82.4025 57.185 82.5196 57.0741 82.6604 57.0787L83.1668 57.0953C83.307 57.0999 83.4172 57.2182 83.4126 57.3578L83.3944 57.9142Z" fill="#342E2C"/>
<path d="M85.4237 57.9807C85.4191 58.1209 85.3014 58.2317 85.1612 58.2271L84.6548 58.2105C84.514 58.2059 84.4044 58.0876 84.409 57.9474L84.4272 57.391C84.4318 57.2515 84.5489 57.1406 84.6897 57.1452L85.1961 57.1618C85.3363 57.1664 85.4465 57.2847 85.4419 57.4243L85.4237 57.9807Z" fill="#342E2C"/>
<path d="M87.452 58.0472C87.4474 58.1874 87.3297 58.2982 87.1895 58.2936L86.6831 58.277C86.5429 58.2724 86.4327 58.1541 86.4373 58.014L86.4555 57.4576C86.4601 57.318 86.5778 57.2071 86.718 57.2117L87.2244 57.2283C87.3646 57.2329 87.4748 57.3512 87.4702 57.4908L87.452 58.0472Z" fill="#342E2C"/>
<path d="M89.4823 58.1136C89.4777 58.2538 89.36 58.3646 89.2198 58.36L88.7134 58.3434C88.5732 58.3389 88.463 58.2206 88.4676 58.0804L88.4858 57.524C88.4904 57.3844 88.6081 57.2736 88.7483 57.2782L89.2547 57.2948C89.3949 57.2993 89.5051 57.4177 89.5005 57.5572L89.4823 58.1136Z" fill="#342E2C"/>
<path d="M91.5106 58.18C91.506 58.3202 91.3883 58.4311 91.2475 58.4264L90.7417 58.4099C90.6015 58.4053 90.4913 58.287 90.4959 58.1468L90.5141 57.5904C90.5187 57.4508 90.637 57.34 90.7766 57.3446L91.2824 57.3612C91.4226 57.3657 91.5334 57.4841 91.5288 57.6236L91.5106 58.18Z" fill="#342E2C"/>
<path d="M93.5399 58.2466C93.5353 58.3867 93.4176 58.4976 93.2768 58.493L92.771 58.4764C92.6308 58.4718 92.5206 58.3535 92.5252 58.2133L92.5434 57.6569C92.548 57.5173 92.6657 57.4065 92.8059 57.4111L93.3117 57.4277C93.4525 57.4323 93.5627 57.5506 93.5581 57.6901L93.5399 58.2466Z" fill="#342E2C"/>
<path d="M95.568 58.313C95.5634 58.4532 95.4463 58.564 95.3061 58.5595L94.7997 58.5429C94.6595 58.5383 94.5499 58.42 94.5545 58.2798L94.5727 57.7234C94.5773 57.5838 94.6944 57.473 94.8346 57.4776L95.341 57.4942C95.4812 57.4988 95.5908 57.617 95.5862 57.7566L95.568 58.313Z" fill="#342E2C"/>
<path d="M97.5979 58.3795C97.5933 58.5196 97.4762 58.6305 97.3354 58.6259L96.829 58.6093C96.6888 58.6047 96.5792 58.4864 96.5838 58.3462L96.602 57.7898C96.6066 57.6503 96.7243 57.5394 96.8639 57.544L97.3703 57.5606C97.5105 57.5652 97.6207 57.6835 97.6161 57.823L97.5979 58.3795Z" fill="#342E2C"/>
<path d="M99.6274 58.4459C99.6228 58.5861 99.5051 58.6969 99.3643 58.6923L98.8579 58.6757C98.7177 58.6711 98.6075 58.5528 98.6121 58.4127L98.6303 57.8562C98.6349 57.7167 98.7526 57.6058 98.8928 57.6104L99.3992 57.627C99.5394 57.6316 99.6502 57.7499 99.6457 57.8895L99.6274 58.4459Z" fill="#342E2C"/>
<path d="M101.656 58.5124C101.652 58.6526 101.534 58.7634 101.394 58.7588L100.888 58.7423C100.747 58.7376 100.637 58.6193 100.641 58.4792L100.66 57.9228C100.664 57.7832 100.781 57.6723 100.923 57.677L101.429 57.6935C101.569 57.6982 101.679 57.8164 101.674 57.956L101.656 58.5124Z" fill="#342E2C"/>
<path d="M114.307 56.5207L106.789 56.2744L110.235 59.9551L105.063 59.7857L106.729 61.5637L113.843 61.7968L115.897 60.894L117.659 60.0995L114.307 56.5207Z" fill="#9FA197"/>
<path d="M113.488 58.3211L106.858 58.1039C105.898 58.0725 105.095 58.8252 105.063 59.7857L115.169 60.1168C115.2 59.1563 114.448 58.3526 113.488 58.3211Z" fill="#FFE98A"/>
<path d="M325.339 59.389L319.83 58.719L316.155 62.877L315.09 57.43L310 55.22L314.85 52.525L315.38 47L319.442 50.78L324.86 49.577L322.52 54.609L325.339 59.389Z" fill="white"/>
<path d="M234.554 62.424L232.09 62.898L233.212 60.654L232 58.457L234.481 58.832L236.196 57L236.606 59.474L238.877 60.539L236.651 61.695L236.341 64.184L234.554 62.424Z" fill="white"/>
<path d="M85.554 134.424L83.09 134.897L84.212 132.654L83 130.457L85.481 130.832L87.195 129L87.606 131.474L89.877 132.539L87.651 133.694L87.341 136.184L85.554 134.424Z" fill="white"/>
<path d="M49.646 68.26L44.051 67.737L40.448 72.05L39.216 66.567L34 64.473L38.835 61.608L39.214 56L43.434 59.712L48.884 58.34L46.657 63.501L49.646 68.26Z" fill="white"/>
<path d="M52.289 140.497L50.168 141.173L49.524 143.304L48.225 141.496L46 141.54L47.318 139.747L46.588 137.645L48.701 138.344L50.475 137L50.462 139.226L52.289 140.497Z" fill="white"/>
<path d="M110.866 149.946C110.185 147.64 108.225 145.974 105.912 145.974C105.567 145.974 105.231 146.012 104.905 146.081C104.363 142.412 101.48 139.611 98.0055 139.611C96.3624 139.611 94.8523 140.239 93.659 141.288C92.4541 138.96 90.1877 137.39 87.5852 137.39C83.9538 137.39 80.9698 140.448 80.626 144.364C80.571 144.36 80.5143 144.357 80.4555 144.357C79.9022 144.357 79.3708 144.468 78.8781 144.669C78.5538 144.059 78.1478 143.508 77.6805 143.031C77.6608 141.648 76.6429 140.532 75.3862 140.532C75.3693 140.532 75.3521 140.535 75.3352 140.535C75.0243 139.538 74.1713 138.821 73.1647 138.821C72.5288 138.821 71.953 139.107 71.537 139.567C70.7788 137.28 68.7926 135.649 66.4592 135.649C65.9653 135.649 65.4861 135.723 65.0325 135.861C64.081 134.145 62.3701 133 60.4161 133C57.4321 133 55.0102 135.674 55.0102 138.973C55.0102 139.07 55.0136 139.166 55.0164 139.263C53.5626 139.411 52.2751 140.197 51.3846 141.365C50.9395 139.311 49.2692 137.782 47.2746 137.782C44.9374 137.782 43.0413 139.876 43.0413 142.458C43.0413 142.604 43.0491 142.748 43.0607 142.891H43V143.379H65.1004C65.35 144.561 66.1361 145.513 67.167 145.895C66.9249 146.645 66.7935 147.453 66.7935 148.297C66.7935 148.864 66.8536 149.416 66.9662 149.946C67.1207 150.666 67.3722 151.347 67.7066 151.966C68.8386 154.061 70.9117 155.466 73.2808 155.466C75.048 155.466 76.6498 154.684 77.8209 153.418C78.5632 154.007 79.4734 154.356 80.4555 154.356C80.8916 154.356 81.3088 154.287 81.7079 154.16C81.6964 154.292 81.6917 154.423 81.6917 154.557C81.6917 157.01 83.4911 159 85.7132 159C87.9337 159 89.7332 157.01 89.7332 154.557C89.7332 153.854 89.5871 153.19 89.3228 152.6C89.847 152.451 90.3487 152.236 90.8182 151.966H92.4069C93.6821 153.846 95.7159 155.062 98.0058 155.062C99.1597 155.062 100.247 154.751 101.206 154.206C102.152 153.666 102.973 152.898 103.604 151.966H111V150.493V149.946H110.866V149.946Z" fill="#DCEAF9"/>
<rect x="37.5" y="133.5" width="115" height="33" rx="16.5" fill="#FFDF57"/>
<path d="M55.831 148.717H54.2372C54.1918 148.456 54.108 148.224 53.9858 148.023C53.8636 147.818 53.7116 147.645 53.5298 147.503C53.348 147.361 53.1406 147.254 52.9077 147.183C52.6776 147.109 52.429 147.072 52.1619 147.072C51.6875 147.072 51.267 147.192 50.9006 147.43C50.5341 147.666 50.2472 148.013 50.0398 148.47C49.8324 148.925 49.7287 149.48 49.7287 150.136C49.7287 150.804 49.8324 151.366 50.0398 151.824C50.25 152.278 50.5369 152.622 50.9006 152.855C51.267 153.085 51.6861 153.2 52.1577 153.2C52.419 153.2 52.6634 153.166 52.8906 153.098C53.1207 153.027 53.3267 152.923 53.5085 152.787C53.6932 152.651 53.848 152.483 53.973 152.284C54.1009 152.085 54.1889 151.858 54.2372 151.602L55.831 151.611C55.7713 152.026 55.642 152.415 55.4432 152.778C55.2472 153.142 54.9901 153.463 54.6719 153.741C54.3537 154.017 53.9815 154.233 53.5554 154.389C53.1293 154.543 52.6563 154.619 52.1364 154.619C51.3693 154.619 50.6847 154.442 50.0824 154.087C49.4801 153.732 49.0057 153.219 48.6591 152.548C48.3125 151.878 48.1392 151.074 48.1392 150.136C48.1392 149.196 48.3139 148.392 48.6634 147.724C49.0128 147.054 49.4886 146.541 50.0909 146.186C50.6932 145.831 51.375 145.653 52.1364 145.653C52.6222 145.653 53.0739 145.722 53.4915 145.858C53.9091 145.994 54.2813 146.195 54.608 146.459C54.9347 146.72 55.2031 147.041 55.4134 147.422C55.6264 147.8 55.7656 148.232 55.831 148.717ZM57.2106 154.5V147.955H58.7063V149.045H58.7745C58.8938 148.668 59.0984 148.376 59.3881 148.172C59.6808 147.964 60.0146 147.861 60.3896 147.861C60.4748 147.861 60.57 147.865 60.6751 147.874C60.783 147.879 60.8725 147.889 60.9435 147.903V149.322C60.8782 149.3 60.7745 149.28 60.6325 149.263C60.4933 149.243 60.3583 149.233 60.2276 149.233C59.9464 149.233 59.6935 149.294 59.4691 149.416C59.2475 149.536 59.0728 149.702 58.945 149.915C58.8171 150.128 58.7532 150.374 58.7532 150.652V154.5H57.2106ZM64.5966 154.628C63.9403 154.628 63.3736 154.491 62.8963 154.219C62.4219 153.943 62.0568 153.554 61.8011 153.051C61.5455 152.545 61.4176 151.95 61.4176 151.266C61.4176 150.592 61.5455 150.001 61.8011 149.493C62.0597 148.982 62.4205 148.584 62.8835 148.3C63.3466 148.013 63.8906 147.869 64.5156 147.869C64.919 147.869 65.2997 147.935 65.6577 148.065C66.0185 148.193 66.3366 148.392 66.6122 148.662C66.8906 148.932 67.1094 149.276 67.2685 149.693C67.4276 150.108 67.5071 150.602 67.5071 151.176V151.649H62.142V150.609H66.0284C66.0256 150.314 65.9616 150.051 65.8366 149.821C65.7116 149.588 65.5369 149.405 65.3125 149.271C65.0909 149.138 64.8324 149.071 64.5369 149.071C64.2216 149.071 63.9446 149.148 63.706 149.301C63.4673 149.452 63.2813 149.651 63.1477 149.898C63.017 150.142 62.9503 150.411 62.9474 150.703V151.611C62.9474 151.991 63.017 152.318 63.1562 152.591C63.2955 152.861 63.4901 153.068 63.7401 153.213C63.9901 153.355 64.2827 153.426 64.6179 153.426C64.8423 153.426 65.0455 153.395 65.2273 153.332C65.4091 153.267 65.5668 153.172 65.7003 153.047C65.8338 152.922 65.9347 152.767 66.0028 152.582L67.4432 152.744C67.3523 153.125 67.179 153.457 66.9233 153.741C66.6705 154.023 66.3466 154.241 65.9517 154.398C65.5568 154.551 65.1051 154.628 64.5966 154.628ZM70.6957 154.632C70.2809 154.632 69.9073 154.558 69.5749 154.411C69.2454 154.26 68.984 154.038 68.7908 153.746C68.6005 153.453 68.5053 153.092 68.5053 152.663C68.5053 152.294 68.5735 151.989 68.7099 151.747C68.8462 151.506 69.0323 151.312 69.2681 151.168C69.5039 151.023 69.7695 150.913 70.065 150.839C70.3633 150.763 70.6715 150.707 70.9897 150.673C71.3732 150.634 71.6843 150.598 71.9229 150.567C72.1616 150.533 72.3349 150.482 72.4428 150.413C72.5536 150.342 72.609 150.233 72.609 150.085V150.06C72.609 149.739 72.5138 149.49 72.3235 149.314C72.1332 149.138 71.859 149.05 71.5011 149.05C71.1232 149.05 70.8235 149.132 70.6019 149.297C70.3832 149.462 70.2354 149.656 70.1587 149.881L68.7184 149.676C68.832 149.278 69.0195 148.946 69.2809 148.679C69.5423 148.409 69.8619 148.207 70.2397 148.074C70.6175 147.938 71.0352 147.869 71.4925 147.869C71.8079 147.869 72.1218 147.906 72.4343 147.98C72.7468 148.054 73.0323 148.176 73.2908 148.347C73.5494 148.514 73.7567 148.743 73.913 149.033C74.0721 149.322 74.1516 149.685 74.1516 150.119V154.5H72.6687V153.601H72.6175C72.5238 153.783 72.3917 153.953 72.2212 154.112C72.0536 154.268 71.842 154.395 71.5863 154.491C71.3335 154.585 71.0366 154.632 70.6957 154.632ZM71.0962 153.499C71.4059 153.499 71.6744 153.437 71.9016 153.315C72.1289 153.19 72.3036 153.026 72.4258 152.821C72.5508 152.616 72.6133 152.393 72.6133 152.152V151.381C72.565 151.42 72.4826 151.457 72.3661 151.491C72.2525 151.526 72.1246 151.555 71.9826 151.581C71.8406 151.607 71.6999 151.629 71.5607 151.649C71.4215 151.669 71.3008 151.686 71.1985 151.7C70.9684 151.732 70.7624 151.783 70.5806 151.854C70.3988 151.925 70.2553 152.024 70.1502 152.152C70.0451 152.277 69.9925 152.439 69.9925 152.638C69.9925 152.922 70.0962 153.136 70.3036 153.281C70.511 153.426 70.7752 153.499 71.0962 153.499ZM78.9712 147.955V149.148H75.2085V147.955H78.9712ZM76.1374 146.386H77.68V152.531C77.68 152.739 77.7113 152.898 77.7738 153.009C77.8391 153.116 77.9244 153.19 78.0295 153.23C78.1346 153.27 78.2511 153.29 78.3789 153.29C78.4755 153.29 78.5636 153.283 78.6431 153.268C78.7255 153.254 78.788 153.241 78.8306 153.23L79.0906 154.436C79.0082 154.464 78.8903 154.496 78.7369 154.53C78.5863 154.564 78.4016 154.584 78.1829 154.589C77.7965 154.601 77.4485 154.543 77.1388 154.415C76.8292 154.284 76.5835 154.082 76.4016 153.81C76.2227 153.537 76.1346 153.196 76.1374 152.787V146.386ZM83.0888 154.628C82.4325 154.628 81.8658 154.491 81.3885 154.219C80.9141 153.943 80.549 153.554 80.2933 153.051C80.0376 152.545 79.9098 151.95 79.9098 151.266C79.9098 150.592 80.0376 150.001 80.2933 149.493C80.5518 148.982 80.9126 148.584 81.3757 148.3C81.8388 148.013 82.3828 147.869 83.0078 147.869C83.4112 147.869 83.7919 147.935 84.1499 148.065C84.5107 148.193 84.8288 148.392 85.1044 148.662C85.3828 148.932 85.6016 149.276 85.7607 149.693C85.9197 150.108 85.9993 150.602 85.9993 151.176V151.649H80.6342V150.609H84.5206C84.5178 150.314 84.4538 150.051 84.3288 149.821C84.2038 149.588 84.0291 149.405 83.8047 149.271C83.5831 149.138 83.3246 149.071 83.0291 149.071C82.7138 149.071 82.4368 149.148 82.1982 149.301C81.9595 149.452 81.7734 149.651 81.6399 149.898C81.5092 150.142 81.4425 150.411 81.4396 150.703V151.611C81.4396 151.991 81.5092 152.318 81.6484 152.591C81.7876 152.861 81.9822 153.068 82.2322 153.213C82.4822 153.355 82.7749 153.426 83.1101 153.426C83.3345 153.426 83.5376 153.395 83.7195 153.332C83.9013 153.267 84.0589 153.172 84.1925 153.047C84.326 152.922 84.4268 152.767 84.495 152.582L85.9354 152.744C85.8445 153.125 85.6712 153.457 85.4155 153.741C85.1626 154.023 84.8388 154.241 84.4439 154.398C84.049 154.551 83.5973 154.628 83.0888 154.628ZM91.4698 154.5H89.7823L92.8548 145.773H94.8065L97.8832 154.5H96.1957L93.8647 147.562H93.7965L91.4698 154.5ZM91.5252 151.078H96.1275V152.348H91.5252V151.078ZM100.507 150.665V154.5H98.9645V147.955H100.439V149.067H100.516C100.666 148.7 100.906 148.409 101.236 148.193C101.568 147.977 101.979 147.869 102.467 147.869C102.919 147.869 103.313 147.966 103.648 148.159C103.986 148.352 104.247 148.632 104.432 148.999C104.619 149.365 104.712 149.81 104.709 150.332V154.5H103.166V150.571C103.166 150.134 103.053 149.791 102.825 149.544C102.601 149.297 102.29 149.173 101.892 149.173C101.622 149.173 101.382 149.233 101.172 149.352C100.964 149.469 100.801 149.638 100.682 149.859C100.565 150.081 100.507 150.349 100.507 150.665ZM117.12 150.136C117.12 151.077 116.944 151.882 116.592 152.553C116.242 153.22 115.765 153.732 115.16 154.087C114.558 154.442 113.874 154.619 113.11 154.619C112.346 154.619 111.661 154.442 111.056 154.087C110.454 153.729 109.977 153.216 109.624 152.548C109.275 151.878 109.1 151.074 109.1 150.136C109.1 149.196 109.275 148.392 109.624 147.724C109.977 147.054 110.454 146.541 111.056 146.186C111.661 145.831 112.346 145.653 113.11 145.653C113.874 145.653 114.558 145.831 115.16 146.186C115.765 146.541 116.242 147.054 116.592 147.724C116.944 148.392 117.12 149.196 117.12 150.136ZM115.531 150.136C115.531 149.474 115.427 148.916 115.219 148.462C115.015 148.004 114.731 147.659 114.367 147.426C114.004 147.19 113.585 147.072 113.11 147.072C112.636 147.072 112.217 147.19 111.853 147.426C111.489 147.659 111.204 148.004 110.996 148.462C110.792 148.916 110.69 149.474 110.69 150.136C110.69 150.798 110.792 151.358 110.996 151.815C111.204 152.27 111.489 152.615 111.853 152.851C112.217 153.084 112.636 153.2 113.11 153.2C113.585 153.2 114.004 153.084 114.367 152.851C114.731 152.615 115.015 152.27 115.219 151.815C115.427 151.358 115.531 150.798 115.531 150.136ZM118.547 154.5V147.955H120.042V149.045H120.11C120.23 148.668 120.434 148.376 120.724 148.172C121.017 147.964 121.35 147.861 121.725 147.861C121.811 147.861 121.906 147.865 122.011 147.874C122.119 147.879 122.208 147.889 122.279 147.903V149.322C122.214 149.3 122.11 149.28 121.968 149.263C121.829 149.243 121.694 149.233 121.564 149.233C121.282 149.233 121.029 149.294 120.805 149.416C120.583 149.536 120.409 149.702 120.281 149.915C120.153 150.128 120.089 150.374 120.089 150.652V154.5H118.547ZM125.464 154.615C124.95 154.615 124.489 154.483 124.083 154.219C123.677 153.955 123.356 153.571 123.12 153.068C122.884 152.565 122.766 151.955 122.766 151.236C122.766 150.509 122.886 149.895 123.124 149.395C123.366 148.892 123.691 148.513 124.1 148.257C124.509 147.999 124.965 147.869 125.468 147.869C125.852 147.869 126.167 147.935 126.414 148.065C126.661 148.193 126.857 148.348 127.002 148.53C127.147 148.709 127.259 148.878 127.339 149.037H127.403V145.773H128.95V154.5H127.433V153.469H127.339C127.259 153.628 127.144 153.797 126.994 153.976C126.843 154.152 126.644 154.303 126.397 154.428C126.15 154.553 125.839 154.615 125.464 154.615ZM125.894 153.349C126.221 153.349 126.499 153.261 126.729 153.085C126.96 152.906 127.134 152.658 127.254 152.339C127.373 152.021 127.433 151.651 127.433 151.227C127.433 150.804 127.373 150.436 127.254 150.124C127.137 149.811 126.964 149.568 126.734 149.395C126.506 149.222 126.227 149.135 125.894 149.135C125.55 149.135 125.263 149.224 125.033 149.403C124.803 149.582 124.63 149.83 124.513 150.145C124.397 150.46 124.339 150.821 124.339 151.227C124.339 151.636 124.397 152.001 124.513 152.322C124.633 152.641 124.808 152.892 125.038 153.077C125.271 153.259 125.556 153.349 125.894 153.349ZM133.491 154.628C132.835 154.628 132.268 154.491 131.791 154.219C131.316 153.943 130.951 153.554 130.696 153.051C130.44 152.545 130.312 151.95 130.312 151.266C130.312 150.592 130.44 150.001 130.696 149.493C130.954 148.982 131.315 148.584 131.778 148.3C132.241 148.013 132.785 147.869 133.41 147.869C133.814 147.869 134.194 147.935 134.552 148.065C134.913 148.193 135.231 148.392 135.507 148.662C135.785 148.932 136.004 149.276 136.163 149.693C136.322 150.108 136.402 150.602 136.402 151.176V151.649H131.037V150.609H134.923C134.92 150.314 134.856 150.051 134.731 149.821C134.606 149.588 134.431 149.405 134.207 149.271C133.985 149.138 133.727 149.071 133.431 149.071C133.116 149.071 132.839 149.148 132.6 149.301C132.362 149.452 132.176 149.651 132.042 149.898C131.912 150.142 131.845 150.411 131.842 150.703V151.611C131.842 151.991 131.912 152.318 132.051 152.591C132.19 152.861 132.385 153.068 132.635 153.213C132.885 153.355 133.177 153.426 133.512 153.426C133.737 153.426 133.94 153.395 134.122 153.332C134.304 153.267 134.461 153.172 134.595 153.047C134.728 152.922 134.829 152.767 134.897 152.582L136.338 152.744C136.247 153.125 136.074 153.457 135.818 153.741C135.565 154.023 135.241 154.241 134.846 154.398C134.451 154.551 134 154.628 133.491 154.628ZM137.707 154.5V147.955H139.202V149.045H139.271C139.39 148.668 139.594 148.376 139.884 148.172C140.177 147.964 140.511 147.861 140.886 147.861C140.971 147.861 141.066 147.865 141.171 147.874C141.279 147.879 141.369 147.889 141.44 147.903V149.322C141.374 149.3 141.271 149.28 141.129 149.263C140.989 149.243 140.854 149.233 140.724 149.233C140.442 149.233 140.19 149.294 139.965 149.416C139.744 149.536 139.569 149.702 139.441 149.915C139.313 150.128 139.249 150.374 139.249 150.652V154.5H137.707Z" fill="#101010"/>
</g>
</g>
<defs>
<filter id="filter0_d_51_548" x="0" y="0" width="365" height="200" filterUnits="userSpaceOnUse" color-interpolation-filters="sRGB">
<feFlood flood-opacity="0" result="BackgroundImageFix"/>
<feColorMatrix in="SourceAlpha" type="matrix" values="0 0 0 0 0 0 0 0 0 0 0 0 0 0 0 0 0 0 127 0" result="hardAlpha"/>
<feOffset dy="4"/>
<feGaussianBlur stdDeviation="7.5"/>
<feComposite in2="hardAlpha" operator="out"/>
<feColorMatrix type="matrix" values="0 0 0 0 0.301961 0 0 0 0 0 0 0 0 0 0.0745098 0 0 0 0.1 0"/>
<feBlend mode="normal" in2="BackgroundImageFix" result="effect1_dropShadow_51_548"/>
<feBlend mode="normal" in="SourceGraphic" in2="effect1_dropShadow_51_548" result="shape"/>
</filter>
<clipPath id="clip0_51_548">
<rect x="15" y="11" width="335" height="170" rx="10" fill="white"/>
</clipPath>
</defs>
</svg>
