<svg width="365" height="200" viewBox="0 0 365 200" fill="none" xmlns="http://www.w3.org/2000/svg">
<g filter="url(#filter0_d_49_499)">
<g clip-path="url(#clip0_49_499)">
<rect x="15" y="11" width="335" height="170" rx="10" fill="#A1CEFF"/>
<path d="M15 7.20505V51.6498C18.0387 49.4958 20.0471 45.8039 20.0471 41.6057C20.0471 38.9631 19.2394 36.5307 17.8997 34.5458C19.1566 31.4748 19.8643 28.0851 19.8643 24.5162C19.8643 24.0312 19.847 23.555 19.8214 23.077C21.535 23.7364 23.3734 24.0967 25.2933 24.0967C25.87 24.0967 26.4383 24.0639 26.995 24.0028C29.0733 31.003 35.183 36.0713 42.4027 36.0713C50.8137 36.0713 57.721 29.1893 58.5083 20.3906C58.7858 20.3707 59.0597 20.3379 59.331 20.2945C58.9425 21.9865 58.7367 23.7541 58.7367 25.5744C58.7367 37.7681 67.955 47.6512 79.3282 47.6512C85.5189 47.6512 91.0647 44.7165 94.8398 40.0797C96.9456 41.2467 99.3381 41.9088 101.872 41.9088C106.036 41.9088 109.815 40.1257 112.578 37.2331C117.018 44.5643 124.711 49.4179 133.472 49.4179C147.229 49.4179 158.383 37.4579 158.383 22.7052C158.383 22.252 158.373 21.8006 158.353 21.3496C160.668 23.1726 163.524 24.2498 166.617 24.2498C169.035 24.2498 171.31 23.593 173.293 22.4375C176.835 26.1214 181.613 28.4489 186.892 28.6459C187.538 33.7668 191.62 37.7146 196.575 37.7146C201.975 37.7146 206.353 33.0207 206.353 27.2292C206.353 24.5237 205.387 22.0661 203.819 20.2056C205.798 17.501 207.2 14.2902 207.829 10.7841C207.896 10.4203 207.949 10.0561 208 9.68522V7.20505H15Z" fill="#DCEAF9"/>
<path d="M344.815 136.189C344.022 136.189 343.247 136.259 342.487 136.392C341.075 134.326 338.91 133 336.483 133C332.236 133 328.791 137.044 328.791 142.033C328.791 144.016 329.343 145.843 330.262 147.331C329.401 149.636 328.915 152.18 328.915 154.858C328.915 155.222 328.928 155.579 328.946 155.938C327.77 155.444 326.511 155.173 325.195 155.173C324.801 155.173 324.411 155.197 324.028 155.243C322.604 149.991 318.419 146.187 313.471 146.187C307.709 146.187 302.974 151.351 302.435 157.954C302.245 157.969 302.057 157.994 301.872 158.026C302.136 156.757 302.278 155.43 302.278 154.064C302.278 144.913 295.962 137.497 288.169 137.497C283.927 137.497 280.126 139.699 277.541 143.179C276.097 142.303 274.458 141.806 272.721 141.806C269.868 141.806 267.279 143.144 265.387 145.315C262.344 139.813 257.071 136.171 251.069 136.171C241.642 136.171 233.999 145.147 233.999 156.217C233.999 156.559 234.006 156.897 234.02 157.234C232.432 155.866 230.475 155.058 228.356 155.058C226.699 155.058 225.14 155.551 223.781 156.418C221.354 153.654 218.081 151.907 214.464 151.759C214.021 147.915 211.224 144.953 207.83 144.953C204.128 144.953 201.128 148.476 201.128 152.822C201.128 154.852 201.791 156.698 202.865 158.093C201.51 160.122 200.548 162.532 200.118 165.164C200.071 165.436 200.034 165.71 200 165.988V167.849L199.619 170.262C198.786 170.564 198.041 171.101 197.44 171.807C195.701 166.233 191.147 162.255 185.796 162.255C184.663 162.255 183.564 162.436 182.524 162.773C180.342 158.591 176.419 155.799 171.938 155.799C165.095 155.799 159.542 162.318 159.542 170.358C159.542 170.593 159.55 170.828 159.556 171.062C156.223 171.424 153.27 173.341 151.228 176.188C150.207 171.181 146.377 167.455 141.802 167.455C136.443 167.455 132.096 172.558 132.096 178.852C132.096 179.209 132.113 179.56 132.14 179.907H132V181.097H197.907H211.491H350V137.207C348.375 136.548 346.63 136.189 344.815 136.189Z" fill="#CCE0F2"/>
<path d="M207.074 100.806C206.732 93.9721 204.405 87.6615 200.658 82.4382C199.775 81.2077 198.813 80.0384 197.78 78.936C197.363 78.4905 196.929 78.0599 196.489 77.637C191.842 73.1736 185.955 69.9927 179.39 68.6763C178.44 68.4856 177.475 68.3356 176.498 68.2248C175.205 68.0778 173.891 68 172.559 68C170.366 68 168.222 68.2066 166.143 68.5969C163.448 69.1029 160.863 69.9204 158.427 71.0131C146.524 76.3533 138.195 88.2321 138.006 102.079C138.004 102.238 138 102.398 138 102.559C138 107.442 139.015 112.087 140.841 116.298C146.155 128.548 158.355 137.118 172.559 137.118C173.024 137.118 173.487 137.106 173.948 137.088C175.734 137.017 177.485 136.811 179.192 136.479C195.104 133.386 207.118 119.377 207.118 102.559C207.118 101.971 207.103 101.387 207.074 100.806Z" fill="#CAE0FC"/>
<path d="M207.105 100.806C205.98 101.629 204.273 102.296 203.337 102.559C202.618 102.761 201.035 102.861 200.353 102.559C199.647 102.246 198.856 101.054 198.206 100.22C198.025 99.9891 197.855 99.7838 197.701 99.6343C197.388 99.3298 196.648 98.839 196.375 98.4986C195.934 97.9494 195.101 96.715 195.049 96.0124C195.004 95.398 195.852 94.3075 195.878 93.6917C195.913 92.8784 195.023 91.3564 195.049 90.5426C195.07 89.888 195.346 88.4397 195.878 88.0566C196.281 87.7657 197.388 88.1894 197.867 88.0566C198.181 87.9696 198.678 87.8013 199.148 87.5788C199.723 87.306 200.256 86.952 200.353 86.5649C200.491 86.0184 199.579 84.9627 199.69 84.41C199.789 83.9202 200.192 83.0985 200.69 82.4387C199.807 81.2082 198.845 80.0389 197.812 78.9365C197.605 79.1916 197.433 79.4365 197.32 79.6551C197.269 79.7543 197.228 79.8483 197.204 79.9348C196.964 80.7878 198.376 82.6903 197.867 83.4155C197.264 84.2743 194.404 83.2803 193.723 84.0786C193.32 84.5515 194.163 86.1253 193.723 86.5649C193.401 86.8871 192.33 86.7173 191.9 86.5649C191.095 86.2792 189.883 84.9821 189.248 84.41C188.508 83.7427 186.93 82.4541 186.43 81.5924C185.956 80.7751 185.011 78.7901 185.436 77.9458C185.896 77.0311 188.968 77.4386 189.248 76.454C189.475 75.6567 188.032 74.1005 187.259 73.8019C186.236 73.4066 183.982 74.9998 182.949 74.6309C182.34 74.4131 181.638 73.1886 181.292 72.6419C180.795 71.8567 179.883 69.7638 179.422 68.677C178.471 68.4863 177.507 68.3364 176.53 68.2255C176.632 69.6723 176.668 71.4572 176.319 72.2276C175.66 73.6856 173.095 76.6932 171.513 76.4543C170.023 76.2293 169.234 72.5456 168.364 71.3159C167.94 70.7177 166.829 69.3786 166.174 68.5977C163.479 69.1037 160.894 69.9211 158.459 71.0139C158.882 71.4848 159.212 71.9566 159.248 72.3102C159.329 73.1234 157.141 74.4454 157.59 75.1281C157.957 75.6865 159.725 75.2201 160.242 74.7964C160.748 74.381 160.504 72.6389 161.071 72.3102C162.533 71.4616 166.563 72.386 167.701 73.6364C168.514 74.5299 168.695 77.3419 168.198 78.443C167.758 79.4179 165.786 80.8865 164.717 80.9293C163.993 80.9581 162.955 79.4084 162.231 79.4375C161.234 79.4778 159.739 81.2209 159.248 82.0896C158.916 82.6766 158.916 84.0878 158.75 84.7414C158.451 85.9229 157.7 88.2466 157.259 89.3825C156.862 90.4024 155.62 92.2825 155.435 93.3605C155.281 94.2628 156.289 96.2553 155.767 97.0074C155.497 97.3955 154.355 97.7373 153.944 97.5046C153.008 96.9738 153.641 94.0107 152.783 93.3605C152.189 92.9098 150.525 93.1852 149.8 93.3605C148.215 93.7442 144.99 95.0494 143.999 96.344C143.318 97.2321 143.207 100.028 143.999 100.819C144.379 101.2 145.615 100.819 146.153 100.819C147.106 100.819 149.458 100.013 149.966 100.819C150.578 101.792 147.87 103.819 147.977 104.963C148.041 105.662 148.935 107.168 149.634 107.226C150.442 107.293 151.204 105.269 151.955 104.963C152.914 104.573 155.366 104.231 156.098 104.963C156.498 105.363 156.05 106.663 156.098 107.226C156.181 108.186 156.024 110.403 156.761 111.022C157.459 111.609 159.519 111.224 160.408 111.022C161.482 110.779 163.307 109.348 164.386 109.125C165.481 108.898 167.749 109.248 168.861 109.125C170.001 108.997 172.189 108.129 173.336 108.113C174.646 108.094 177.218 108.756 178.475 109.125C179.714 109.488 181.99 111.041 183.281 111.022C184.522 111.005 186.938 109.457 188.202 110.381C189.351 111.222 189.328 113.681 189.248 114.818C189.228 115.103 189.215 115.447 189.203 115.826C189.151 117.417 189.108 119.633 188.585 120.71C188.026 121.862 185.433 123.127 184.939 124.308C184.39 125.622 184.509 128.404 183.841 129.66C183.042 131.16 180.101 132.298 179.303 133.798C179.037 134.299 179.134 135.665 179.223 136.481C195.136 133.387 207.149 119.378 207.149 102.56C207.149 101.971 207.134 101.387 207.105 100.806ZM157.424 103.43C156.289 103.33 153.896 102.491 153.281 101.532C153.117 101.277 153.018 100.473 153.281 100.321C154.163 99.8096 156.167 101.379 157.176 101.532C157.729 101.616 158.873 101.388 159.413 101.532C159.875 101.654 161.134 102.007 161.071 102.481C160.946 103.415 158.363 103.512 157.424 103.43ZM168.364 103.43C167.99 104.726 163.948 104.74 162.977 103.802C162.631 103.467 162.624 102.203 162.977 101.875C163.643 101.257 165.75 101.831 166.603 102.144C167.115 102.332 168.515 102.906 168.364 103.43ZM185.602 84.4095C185.287 84.8466 183.922 84.6636 183.447 84.4095C182.854 84.0923 182.034 82.8397 181.955 82.1719C181.833 81.1411 182.748 78.3207 183.778 78.4425C184.158 78.4875 184.133 80.6846 184.235 81.0526C184.55 82.1891 186.291 83.4528 185.602 84.4095Z" fill="#B5D3F4"/>
<path d="M172.937 124.951C171.014 124.499 167.949 124.901 166.541 124.307C164.349 123.382 159.897 120.78 158.916 118.613C158.525 117.749 158.513 115.676 158.916 114.817C159.259 114.086 161.676 113.512 161.402 112.752C161.022 111.7 158.008 113.043 156.927 112.752C156.094 112.529 154.633 111.539 153.944 111.021C153.394 110.609 152.618 109.304 151.955 109.123C151.093 108.888 149.361 110.043 148.474 109.935C146.303 109.67 142.297 107.432 140.684 105.957C139.955 105.29 138.884 103.56 138.037 102.078C138.035 102.238 138.031 102.398 138.031 102.559C138.031 107.441 139.046 112.086 140.873 116.298C146.186 128.548 158.386 137.118 172.59 137.118C173.056 137.118 173.518 137.106 173.979 137.087C173.713 135.979 173.408 134.486 173.502 133.796C173.644 132.753 175.223 131.048 175.325 130C175.438 128.847 175.022 126.294 174.165 125.515C173.868 125.246 173.441 125.069 172.937 124.951Z" fill="#B5D3F4"/>
<path d="M200.69 82.4382C200.192 83.0978 199.789 83.9197 199.69 84.4095C199.579 84.9622 200.491 86.0179 200.353 86.5644C200.256 86.9517 199.723 87.3058 199.148 87.5783C198.678 87.8008 198.181 87.9691 197.867 88.0561C197.388 88.1889 196.281 87.7652 195.878 88.0561C195.346 88.4392 195.07 89.8877 195.049 90.5421C195.023 91.3561 195.913 92.8779 195.878 93.6912C195.852 94.307 195.004 95.3975 195.049 96.0119C195.101 96.7145 195.934 97.9489 196.375 98.4981C196.649 98.8385 197.388 99.3295 197.701 99.6338C197.855 99.7835 198.025 99.9889 198.206 100.22C198.856 101.054 199.647 102.246 200.353 102.558C201.035 102.861 202.619 102.76 203.337 102.558C204.274 102.296 205.98 101.629 207.105 100.805C206.764 93.9719 204.436 87.6615 200.69 82.4382Z" fill="#FCFCFC"/>
<path d="M188.202 110.38C186.938 109.456 184.522 111.004 183.281 111.021C181.99 111.04 179.714 109.487 178.475 109.124C177.218 108.755 174.646 108.093 173.336 108.112C172.19 108.128 170.001 108.997 168.861 109.124C167.749 109.247 165.481 108.897 164.386 109.124C163.307 109.347 161.482 110.778 160.408 111.021C159.519 111.223 157.459 111.608 156.761 111.021C156.024 110.402 156.182 108.186 156.098 107.225C156.05 106.662 156.499 105.363 156.098 104.962C155.366 104.23 152.914 104.572 151.955 104.962C151.204 105.268 150.442 107.292 149.634 107.225C148.935 107.168 148.041 105.661 147.977 104.962C147.87 103.818 150.578 101.791 149.966 100.818C149.458 100.012 147.106 100.818 146.153 100.818C145.615 100.818 144.38 101.199 143.999 100.818C143.208 100.027 143.318 97.2311 143.999 96.343C144.99 95.0484 148.215 93.7432 149.8 93.3595C150.525 93.1842 152.189 92.9088 152.783 93.3595C153.641 94.0097 153.008 96.9728 153.944 97.5036C154.355 97.7363 155.497 97.3945 155.767 97.0064C156.289 96.2543 155.281 94.2618 155.435 93.3595C155.62 92.2815 156.863 90.4014 157.259 89.3815C157.7 88.2456 158.451 85.9219 158.75 84.7404C158.916 84.0868 158.916 82.6756 159.248 82.0886C159.739 81.2199 161.234 79.4768 162.231 79.4365C162.955 79.4074 163.993 80.9571 164.717 80.9283C165.786 80.8855 167.758 79.4169 168.198 78.442C168.695 77.3409 168.514 74.5289 167.701 73.6353C166.563 72.385 162.533 71.4606 161.071 72.3092C160.504 72.6379 160.749 74.38 160.242 74.7954C159.725 75.2191 157.957 75.6855 157.59 75.1271C157.141 74.4444 159.329 73.1224 159.248 72.3092C159.212 71.9556 158.882 71.4837 158.459 71.0128C146.556 76.3531 138.226 88.2319 138.037 102.078C138.884 103.56 139.955 105.29 140.684 105.957C142.298 107.432 146.303 109.67 148.474 109.935C149.361 110.043 151.093 108.888 151.955 109.123C152.618 109.304 153.394 110.609 153.944 111.021C154.633 111.539 156.094 112.529 156.927 112.752C158.008 113.043 161.023 111.7 161.402 112.752C161.677 113.512 159.26 114.086 158.916 114.817C158.513 115.676 158.525 117.749 158.916 118.613C159.897 120.78 164.349 123.382 166.541 124.307C167.949 124.901 171.014 124.499 172.937 124.951C173.441 125.069 173.868 125.246 174.165 125.515C175.022 126.294 175.438 128.847 175.325 130C175.223 131.048 173.644 132.753 173.502 133.796C173.408 134.486 174.102 138.364 174.368 139.473C176.154 139.403 177.517 136.811 179.223 136.479C179.134 135.663 179.037 134.297 179.303 133.796C180.101 132.297 183.042 131.159 183.84 129.659C184.509 128.402 184.39 125.62 184.939 124.307C185.433 123.125 188.026 121.861 188.585 120.708C189.108 119.632 189.151 117.416 189.203 115.824C189.215 115.445 189.228 115.101 189.248 114.817C189.328 113.68 189.351 111.22 188.202 110.38Z" fill="#FCFCFC"/>
<path d="M157.176 101.532C156.167 101.379 154.163 99.8098 153.281 100.321C153.019 100.473 153.117 101.277 153.281 101.532C153.896 102.491 156.289 103.33 157.424 103.43C158.363 103.512 160.946 103.415 161.071 102.481C161.134 102.008 159.875 101.655 159.413 101.532C158.873 101.388 157.729 101.616 157.176 101.532Z" fill="#FCFCFC"/>
<path d="M162.977 101.875C162.624 102.203 162.631 103.467 162.977 103.802C163.948 104.739 167.99 104.726 168.364 103.43C168.515 102.906 167.115 102.332 166.603 102.144C165.75 101.831 163.643 101.257 162.977 101.875Z" fill="#FCFCFC"/>
<path d="M171.513 76.4535C173.095 76.6924 175.66 73.6848 176.319 72.2269C176.668 71.4564 176.632 69.6718 176.53 68.2248C175.236 68.0778 173.922 68 172.59 68C170.397 68 168.253 68.2066 166.174 68.5969C166.829 69.3779 167.94 70.7167 168.364 71.3152C169.234 72.5449 170.023 76.2285 171.513 76.4535Z" fill="#FCFCFC"/>
<path d="M197.867 83.415C198.376 82.6898 196.964 80.7873 197.204 79.9342C197.228 79.8477 197.269 79.7537 197.32 79.6545C197.433 79.436 197.605 79.1914 197.812 78.936C197.394 78.4905 196.961 78.0599 196.521 77.637C191.874 73.1736 185.986 69.9927 179.422 68.6763C179.883 69.763 180.795 71.8559 181.292 72.6411C181.639 73.1878 182.34 74.4123 182.95 74.6301C183.983 74.999 186.236 73.4059 187.259 73.8012C188.032 74.0998 189.475 75.6559 189.249 76.4532C188.969 77.4378 185.896 77.0303 185.436 77.945C185.011 78.7893 185.956 80.7744 186.43 81.5916C186.931 82.4533 188.509 83.7419 189.249 84.4093C189.883 84.9813 191.095 86.2784 191.9 86.5641C192.33 86.7165 193.401 86.8863 193.723 86.5641C194.163 86.1245 193.32 84.5507 193.723 84.0778C194.404 83.2797 197.264 84.2738 197.867 83.415Z" fill="#FCFCFC"/>
<path d="M183.447 84.4095C183.922 84.6636 185.287 84.8466 185.602 84.4095C186.291 83.4528 184.55 82.189 184.235 81.0526C184.133 80.6846 184.158 78.4875 183.778 78.4425C182.747 78.3207 181.833 81.1411 181.955 82.1719C182.034 82.8394 182.854 84.0922 183.447 84.4095Z" fill="#FCFCFC"/>
<path d="M185.664 106.872H15.3356C15.1504 106.872 15 106.6 15 106.265C15 105.93 15.1504 105.659 15.3356 105.659H185.664C185.85 105.659 186 105.93 186 106.265C186 106.6 185.85 106.872 185.664 106.872Z" fill="#FFE98A"/>
<path d="M541.972 108.252C539.499 108.252 538.201 106.922 537.159 105.854C536.195 104.865 535.432 104.084 533.839 104.084C532.243 104.084 531.481 104.865 530.517 105.854C529.474 106.922 528.175 108.252 525.702 108.252C523.23 108.252 521.932 106.922 520.889 105.854C519.924 104.866 519.161 104.084 517.567 104.084C515.974 104.084 515.211 104.864 514.247 105.854C513.205 106.922 511.908 108.252 509.434 108.252C506.961 108.252 505.663 106.922 504.621 105.854C503.657 104.866 502.895 104.084 501.3 104.084C499.706 104.084 498.945 104.864 497.979 105.854C496.936 106.922 495.638 108.252 493.166 108.252C490.692 108.252 489.395 106.922 488.352 105.854C487.386 104.865 486.623 104.084 485.029 104.084C483.433 104.084 482.672 104.865 481.706 105.854C480.664 106.922 479.367 108.252 476.893 108.252C474.419 108.252 473.121 106.922 472.078 105.854C471.113 104.865 470.35 104.084 468.756 104.084C467.16 104.084 466.399 104.865 465.434 105.854C464.391 106.922 463.092 108.252 460.62 108.252C458.147 108.252 456.849 106.922 455.805 105.854C454.84 104.866 454.078 104.084 452.482 104.084C450.887 104.084 450.125 104.865 449.16 105.854C448.117 106.922 446.819 108.252 444.346 108.252C441.872 108.252 440.575 106.922 439.531 105.854C438.567 104.865 437.804 104.084 436.211 104.084C434.615 104.084 433.853 104.865 432.888 105.854C431.845 106.922 430.546 108.252 428.073 108.252C425.6 108.252 424.302 106.922 423.26 105.854C422.295 104.866 421.533 104.084 419.938 104.084C418.343 104.084 417.581 104.865 416.616 105.854C415.573 106.922 414.274 108.252 411.802 108.252C409.327 108.252 408.031 106.922 406.989 105.854C406.023 104.865 405.261 104.084 403.667 104.084C402.072 104.084 401.311 104.864 400.345 105.854C399.303 106.922 398.005 108.252 395.532 108.252C393.059 108.252 391.761 106.922 390.719 105.854C389.754 104.866 388.992 104.084 387.396 104.084C385.8 104.084 385.039 104.865 384.075 105.854C383.032 106.922 381.734 108.252 379.262 108.252C376.788 108.252 375.491 106.922 374.449 105.854C373.484 104.865 372.721 104.084 371.128 104.084C369.533 104.084 368.771 104.864 367.806 105.854C366.763 106.922 365.465 108.252 362.992 108.252C360.519 108.252 359.221 106.922 358.177 105.854C357.213 104.866 356.45 104.084 354.856 104.084C353.26 104.084 352.498 104.864 351.534 105.854C350.491 106.922 349.193 108.252 346.721 108.252C344.249 108.252 342.952 106.922 341.908 105.854C340.943 104.866 340.181 104.084 338.587 104.084C336.992 104.084 336.23 104.864 335.266 105.854C334.222 106.922 332.926 108.252 330.452 108.252C327.979 108.252 326.681 106.922 325.638 105.854C324.674 104.866 323.911 104.084 322.316 104.084C320.723 104.084 319.961 104.864 318.996 105.854C317.953 106.922 316.655 108.252 314.183 108.252C311.71 108.252 310.412 106.922 309.37 105.854C308.405 104.865 307.642 104.084 306.05 104.084C304.456 104.084 303.693 104.864 302.73 105.854C301.686 106.922 300.389 108.252 297.917 108.252C295.443 108.252 294.146 106.922 293.104 105.854C292.139 104.866 291.377 104.084 289.782 104.084C288.187 104.084 287.425 104.865 286.459 105.854C285.416 106.922 284.118 108.252 281.645 108.252C279.172 108.252 277.876 106.922 276.832 105.854C275.866 104.865 275.105 104.084 273.511 104.084C271.917 104.084 271.156 104.864 270.192 105.854C269.15 106.922 267.852 108.252 265.379 108.252C262.906 108.252 261.608 106.922 260.566 105.854C259.601 104.865 258.838 104.084 257.245 104.084C255.65 104.084 254.888 104.865 253.923 105.854C252.88 106.922 251.583 108.252 249.11 108.252C246.637 108.252 245.339 106.922 244.297 105.854C243.333 104.866 242.57 104.084 240.976 104.084C239.381 104.084 238.619 104.864 237.655 105.854C236.613 106.922 235.315 108.252 232.842 108.252C230.369 108.252 229.072 106.922 228.03 105.854C227.064 104.865 226.302 104.084 224.709 104.084C223.115 104.084 222.353 104.865 221.39 105.854C220.348 106.922 219.05 108.252 216.578 108.252C214.104 108.252 212.807 106.922 211.765 105.854C210.8 104.865 210.038 104.084 208.444 104.084C206.85 104.084 206.088 104.864 205.123 105.854C204.08 106.922 202.782 108.252 200.31 108.252C197.837 108.252 196.539 106.922 195.497 105.854C194.533 104.866 193.77 104.084 192.176 104.084C190.581 104.084 189.819 104.864 188.855 105.854C187.813 106.922 186.515 108.252 184.042 108.252C183.466 108.252 183 107.786 183 107.21C183 106.634 183.466 106.168 184.042 106.168C185.636 106.168 186.399 105.388 187.363 104.398C188.405 103.33 189.702 102 192.176 102C194.65 102 195.946 103.33 196.99 104.398C197.954 105.387 198.716 106.168 200.31 106.168C201.905 106.168 202.666 105.388 203.632 104.398C204.675 103.33 205.973 102 208.445 102C210.918 102 212.216 103.33 213.258 104.398C214.224 105.387 214.986 106.168 216.579 106.168C218.172 106.168 218.933 105.388 219.897 104.398C220.939 103.33 222.237 102 224.71 102C227.183 102 228.481 103.33 229.523 104.398C230.488 105.387 231.25 106.168 232.843 106.168C234.437 106.168 235.199 105.388 236.164 104.398C237.206 103.33 238.503 102 240.977 102C243.451 102 244.748 103.33 245.791 104.398C246.755 105.387 247.517 106.168 249.111 106.168C250.706 106.168 251.468 105.388 252.433 104.398C253.476 103.33 254.774 102 257.247 102C259.72 102 261.018 103.33 262.06 104.398C263.026 105.387 263.787 106.168 265.381 106.168C266.974 106.168 267.736 105.388 268.7 104.398C269.743 103.33 271.04 102 273.513 102C275.986 102 277.283 103.33 278.326 104.398C279.291 105.386 280.054 106.168 281.647 106.168C283.242 106.168 284.004 105.388 284.969 104.398C286.012 103.33 287.31 102 289.783 102C292.257 102 293.555 103.33 294.598 104.398C295.562 105.387 296.324 106.168 297.919 106.168C299.514 106.168 300.276 105.387 301.24 104.398C302.283 103.33 303.581 102 306.053 102C308.524 102 309.821 103.33 310.865 104.398C311.831 105.386 312.592 106.168 314.187 106.168C315.782 106.168 316.544 105.387 317.508 104.398C318.551 103.33 319.848 102 322.321 102C324.794 102 326.092 103.33 327.136 104.398C328.1 105.386 328.863 106.168 330.458 106.168C332.053 106.168 332.816 105.387 333.78 104.398C334.823 103.33 336.121 102 338.594 102C341.067 102 342.364 103.33 343.407 104.398C344.372 105.387 345.134 106.168 346.727 106.168C348.322 106.168 349.084 105.388 350.048 104.398C351.092 103.33 352.389 102 354.862 102C357.335 102 358.633 103.33 359.677 104.398C360.641 105.386 361.403 106.168 362.998 106.168C364.593 106.168 365.355 105.387 366.321 104.398C367.364 103.33 368.662 102 371.135 102C373.607 102 374.904 103.33 375.948 104.398C376.914 105.387 377.675 106.168 379.27 106.168C380.865 106.168 381.626 105.388 382.59 104.398C383.633 103.33 384.931 102 387.404 102C389.879 102 391.175 103.33 392.219 104.398C393.184 105.387 393.946 106.168 395.541 106.168C397.135 106.168 397.898 105.388 398.862 104.398C399.905 103.33 401.203 102 403.675 102C406.148 102 407.446 103.33 408.489 104.398C409.453 105.386 410.216 106.168 411.811 106.168C413.406 106.168 414.169 105.387 415.133 104.398C416.176 103.33 417.475 102 419.948 102C422.423 102 423.719 103.33 424.762 104.398C425.727 105.387 426.489 106.168 428.083 106.168C429.679 106.168 430.44 105.387 431.406 104.398C432.449 103.33 433.748 102 436.221 102C438.694 102 439.99 103.33 441.033 104.398C441.998 105.386 442.76 106.168 444.355 106.168C445.952 106.168 446.713 105.387 447.677 104.398C448.721 103.33 450.019 102 452.492 102C454.965 102 456.263 103.33 457.306 104.398C458.271 105.386 459.034 106.168 460.629 106.168C462.224 106.168 462.986 105.387 463.951 104.398C464.994 103.33 466.292 102 468.765 102C471.238 102 472.537 103.33 473.58 104.398C474.544 105.386 475.308 106.168 476.903 106.168C478.498 106.168 479.26 105.388 480.224 104.398C481.267 103.33 482.565 102 485.038 102C487.511 102 488.809 103.33 489.853 104.398C490.818 105.386 491.581 106.168 493.176 106.168C494.771 106.168 495.533 105.387 496.498 104.398C497.541 103.33 498.838 102 501.311 102C503.785 102 505.083 103.33 506.126 104.398C507.09 105.387 507.853 106.168 509.446 106.168C511.04 106.168 511.801 105.388 512.767 104.398C513.809 103.33 515.107 102 517.579 102C520.052 102 521.35 103.33 522.392 104.398C523.358 105.387 524.12 106.168 525.713 106.168C527.309 106.168 528.07 105.387 529.035 104.398C530.078 103.33 531.376 102 533.85 102C536.323 102 537.62 103.33 538.662 104.398C539.627 105.387 540.389 106.168 541.983 106.168C543.577 106.168 544.34 105.388 545.305 104.398C546.348 103.33 547.647 102 550.12 102C550.695 102 551.162 102.466 551.162 103.042C551.162 103.617 550.695 104.084 550.12 104.084C548.524 104.084 547.762 104.865 546.796 105.854C545.743 106.922 544.445 108.252 541.972 108.252Z" fill="#FFE98A"/>
<path d="M52.9367 93.3804L49.2322 92H30.9505V93.3804H26.8562H24.5231L23.9517 96.0468V102.189H65.9194V93.3804H52.9367Z" fill="#C5211B"/>
<path d="M30.9503 93.9162H27.6653V95.6211H30.9503V93.9162Z" fill="#FFE98A"/>
<path d="M35.0687 93.9162H31.7837V95.6211H35.0687V93.9162Z" fill="#D4D7C9"/>
<path d="M30.9444 93.3804V92.0008C28.7607 92.0048 25.118 92.0008 24.5229 93.3804H30.9444Z" fill="#4D4441"/>
<path d="M49.7798 93.3796V92C49.9042 92.0004 59.7519 92.0004 59.8844 92.0008C62.0868 92.0081 65.3583 92.0788 65.9194 93.3796H49.7798Z" fill="#4D4441"/>
<path d="M31.7836 92H30.9504V102.189H31.7836V92Z" fill="#D14D49"/>
<path d="M46.2805 102.189H35.0686V92H35.9017L46.2805 102.189Z" fill="#D14D49"/>
<path d="M48.9467 93.9162H45.6616V95.6211H48.9467V93.9162Z" fill="#D4D7C9"/>
<path d="M53.0652 93.9162H49.7798V95.6211H53.0652V93.9162Z" fill="#D4D7C9"/>
<path d="M49.7797 92H48.9465V102.189H49.7797V92Z" fill="#D14D49"/>
<path d="M26.4034 93.9162H24.9123L24.5469 95.6211H26.4034V93.9162Z" fill="#FFE98A"/>
<path d="M24.098 98.6651V96.0469H22.3806V102.189H24.098H65.9193V98.6651H24.098Z" fill="#941914"/>
<path d="M22.3807 98.6651H21V103.593H22.3807V98.6651Z" fill="#3A3331"/>
<path d="M26.737 103.926C26.737 104.886 25.9591 105.664 24.9994 105.664C24.0396 105.664 23.2617 104.886 23.2617 103.926C23.2617 102.967 24.0396 102.188 24.9994 102.188C25.9591 102.188 26.737 102.967 26.737 103.926Z" fill="#3A3331"/>
<path d="M31.9499 103.926C31.9499 104.886 31.172 105.664 30.2123 105.664C29.2525 105.664 28.4746 104.886 28.4746 103.926C28.4746 102.967 29.2525 102.188 30.2123 102.188C31.172 102.189 31.9499 102.967 31.9499 103.926Z" fill="#3A3331"/>
<path d="M37.1628 103.926C37.1628 104.886 36.3849 105.664 35.4251 105.664C34.4654 105.664 33.6875 104.886 33.6875 103.926C33.6875 102.967 34.4654 102.188 35.4251 102.188C36.3849 102.189 37.1628 102.967 37.1628 103.926Z" fill="#3A3331"/>
<path d="M54.3447 103.926C54.3447 104.886 53.5664 105.664 52.6067 105.664C51.6469 105.664 50.8694 104.886 50.8694 103.926C50.8694 102.967 51.6469 102.188 52.6067 102.188C53.5664 102.189 54.3447 102.967 54.3447 103.926Z" fill="#3A3331"/>
<path d="M59.5572 103.926C59.5572 104.886 58.7793 105.664 57.8196 105.664C56.8598 105.664 56.0815 104.886 56.0815 103.926C56.0815 102.967 56.8598 102.188 57.8196 102.188C58.7793 102.189 59.5572 102.967 59.5572 103.926Z" fill="#3A3331"/>
<path d="M64.7702 103.926C64.7702 104.886 63.9919 105.664 63.0326 105.664C62.0729 105.664 61.2949 104.886 61.2949 103.926C61.2949 102.967 62.0729 102.188 63.0326 102.188C63.9919 102.189 64.7702 102.967 64.7702 103.926Z" fill="#3A3331"/>
<path d="M73.8175 103.926C73.8175 104.886 73.0395 105.664 72.0798 105.664C71.1201 105.664 70.3418 104.886 70.3418 103.926C70.3418 102.967 71.1201 102.188 72.0798 102.188C73.0395 102.189 73.8175 102.967 73.8175 103.926Z" fill="#3A3331"/>
<path d="M79.0305 103.926C79.0305 104.886 78.2522 105.664 77.2928 105.664C76.3331 105.664 75.5552 104.886 75.5552 103.926C75.5552 102.967 76.3327 102.188 77.2928 102.188C78.2522 102.189 79.0305 102.967 79.0305 103.926Z" fill="#3A3331"/>
<path d="M84.2434 103.926C84.2434 104.886 83.4654 105.664 82.5061 105.664C81.5464 105.664 80.7681 104.886 80.7681 103.926C80.7681 102.967 81.546 102.188 82.5061 102.188C83.4654 102.189 84.2434 102.967 84.2434 103.926Z" fill="#3A3331"/>
<path d="M101.425 103.926C101.425 104.886 100.647 105.664 99.6875 105.664C98.7278 105.664 97.9495 104.886 97.9495 103.926C97.9495 102.967 98.7274 102.188 99.6875 102.188C100.647 102.189 101.425 102.967 101.425 103.926Z" fill="#3A3331"/>
<path d="M106.638 103.926C106.638 104.886 105.86 105.664 104.9 105.664C103.941 105.664 103.163 104.886 103.163 103.926C103.163 102.967 103.94 102.188 104.9 102.188C105.86 102.189 106.638 102.967 106.638 103.926Z" fill="#3A3331"/>
<path d="M111.851 103.926C111.851 104.886 111.073 105.664 110.114 105.664C109.154 105.664 108.375 104.886 108.375 103.926C108.375 102.967 109.154 102.188 110.114 102.188C111.073 102.189 111.851 102.967 111.851 103.926Z" fill="#3A3331"/>
<path d="M65.9193 102.189H65.3478H22.3806V103.593H65.3478H65.9193H113V102.189H65.9193Z" fill="#4D4441"/>
<path d="M96.8603 102.189H85.5056V104.807H96.8603V102.189Z" fill="#3A3331"/>
<path d="M64.1462 102.189H63.2891C63.2891 100.535 61.9434 99.1895 60.29 99.1895H28.0107C26.357 99.1895 25.0116 100.535 25.0116 102.189H24.1545C24.1545 100.062 25.8845 98.3321 28.0107 98.3321H60.29C62.4163 98.3317 64.1462 100.062 64.1462 102.189Z" fill="#D4D7C9"/>
<path d="M110.138 92H72.0801V102.189H110.138V92Z" fill="#FFDF57"/>
<path d="M110.114 92H72.0801V93.3804H76.4654V102.189H77.8465V93.3804H82.0762V102.189H83.4572V93.3804H87.6876V102.189H89.0683V93.3804H93.2984V102.189H94.6791V93.3804H98.9095V102.189H100.29V93.3804H104.521V102.189H105.901V93.3804H110.114V92Z" fill="#7FCAD7"/>
<path d="M49.7797 102.189H38.425V104.807H49.7797V102.189Z" fill="#3A3331"/>
<path d="M134.773 101.822H120.805V104.496H134.773V101.822Z" fill="#4D4441"/>
<path d="M116.284 94.5199L113.588 99.5076V104.495H115.122C115.122 103.35 116.051 102.421 117.196 102.421C118.342 102.421 119.27 103.35 119.27 104.495H120.805V94.5199H116.284Z" fill="#FFE98A"/>
<path d="M119.809 100.45C119.809 100.568 119.713 100.663 119.596 100.663H118.448C118.33 100.663 118.234 100.568 118.234 100.45C118.234 100.332 118.33 100.237 118.448 100.237H119.596C119.713 100.236 119.809 100.332 119.809 100.45Z" fill="#4D4441"/>
<path d="M115.391 103.474H113V103.996C113 104.271 113.224 104.496 113.5 104.496H115.122C115.122 104.124 115.22 103.776 115.391 103.474Z" fill="#4D4441"/>
<path d="M117.196 102.421C116.422 102.421 115.747 102.846 115.391 103.474C115.22 103.776 115.122 104.124 115.122 104.496H115.146H119.27C119.27 103.35 118.342 102.421 117.196 102.421Z" fill="#4D4441"/>
<path d="M115.692 104.496C115.692 105.327 116.365 106 117.196 106C118.027 106 118.701 105.326 118.701 104.496C118.701 103.665 118.027 102.991 117.196 102.991C116.365 102.991 115.692 103.665 115.692 104.496Z" fill="#342E2C"/>
<path d="M118.069 104.496C118.069 104.977 117.678 105.368 117.197 105.368V103.623C117.678 103.623 118.069 104.014 118.069 104.496Z" fill="#D4D7C9"/>
<path d="M117.196 103.623V105.368C116.715 105.368 116.324 104.977 116.324 104.496C116.325 104.014 116.715 103.623 117.196 103.623Z" fill="#F1F0F0"/>
<path d="M116.907 95.6125L114.802 99.5079H115.913L119.809 95.6125H116.907Z" fill="#F1F0F0"/>
<path d="M119.809 95.6124L115.913 99.5078H119.809V95.6124Z" fill="#D4D7C9"/>
<path d="M129.658 104.496C129.658 105.327 130.332 106 131.162 106C131.993 106 132.667 105.326 132.667 104.496C132.667 103.665 131.993 102.991 131.162 102.991C130.332 102.991 129.658 103.665 129.658 104.496Z" fill="#342E2C"/>
<path d="M132.035 104.496C132.035 104.977 131.644 105.368 131.162 105.368V103.623C131.644 103.623 132.035 104.014 132.035 104.496Z" fill="#D4D7C9"/>
<path d="M131.162 103.623V105.368C130.681 105.368 130.29 104.977 130.29 104.496C130.29 104.014 130.681 103.623 131.162 103.623Z" fill="#F1F0F0"/>
<path d="M120.805 93V97.6414V102.428L136.077 93H120.805Z" fill="#C5211B"/>
<path d="M120.805 102.428H136.077V97.6414V93L120.805 102.428Z" fill="#941914"/>
<path d="M128.943 104.496H127.467V103.213L127.309 102.861L128.943 104.496Z" fill="#3A3331"/>
<path d="M127.468 103.213C127.468 102.95 127.255 102.738 126.992 102.738H122.862C122.6 102.738 122.387 102.95 122.387 103.213V103.926H127.468V103.213Z" fill="#F1F0F0"/>
<path d="M122.387 103.926V104.639C122.387 104.901 122.6 105.113 122.862 105.113H126.992C127.255 105.113 127.468 104.901 127.468 104.639V103.926H122.387Z" fill="#D4D7C9"/>
<path d="M127.468 103.759H126.287V102.738H125.955V103.759H123.9V102.738H123.567V103.759H122.387V104.092H123.567V105.113H123.9V104.092H125.955V105.113H126.287V104.092H127.468V103.759Z" fill="#FAFEFF"/>
<path d="M269.459 73H267.287V85.7449H269.459V73Z" fill="#9FA197"/>
<path d="M329.121 90.0459H319.562L309.796 84.0989H265.736V90.0459H254.664V97.9605L332.305 99.1053L329.121 90.0459Z" fill="#FFE98A"/>
<path d="M287.634 95.463L244 90.9959L255.403 102.664H341V95.463H287.634Z" fill="#2E5AB5"/>
<path d="M280.707 79.2979H274.423V84.04H280.707V79.2979Z" fill="#C5211B"/>
<path d="M274.423 76.1249V79.2979H280.707L277.566 76.1249H274.423Z" fill="#342E2C"/>
<path d="M305.026 79.2979H298.742V84.04H305.026V79.2979Z" fill="#C5211B"/>
<path d="M298.742 76.1249V79.2979H305.026L301.883 76.1249H298.742Z" fill="#342E2C"/>
<path d="M260.689 96.0278H257.122V97.6313H260.689V96.0278Z" fill="#C5211B"/>
<path d="M266.042 96.0278H262.475V97.6313H266.042V96.0278Z" fill="#C5211B"/>
<path d="M271.395 96.0278H267.828V97.6313H271.395V96.0278Z" fill="#C5211B"/>
<path d="M316.06 89.8315H274.423V91.4334H316.06V89.8315Z" fill="#7FCAD7"/>
<path d="M310.107 86.6611H274.423V88.263H310.107V86.6611Z" fill="#7FCAD7"/>
<path d="M225.184 83.2411H204.421V95.3841H225.184V83.2411Z" fill="#342E2C"/>
<path d="M241 92.2566C241 94.3171 239.329 95.9886 237.269 95.9886H236.44C234.378 95.9886 232.707 94.3178 232.707 92.2566V89.6713C232.707 87.6114 234.377 85.9412 236.44 85.9412H237.269C239.329 85.9412 241 87.6108 241 89.6713V92.2566Z" fill="#342E2C"/>
<path d="M212.378 82C211.694 82 211.001 82.037 210.304 82.1001C204.324 82.6486 198.025 85.3774 194.051 87.4054C191.552 88.6809 189.966 89.6789 189.966 89.6789H207.811C213.791 89.1317 220.089 86.4042 224.063 84.3749C225.127 83.8309 224.735 84.0426 225.419 83.6645C227.304 82.6205 226.949 82.0874 226.176 82.0874C225.923 82.0874 212.378 82 212.378 82Z" fill="#FFE98A"/>
<path d="M209.944 83.7914C209.538 83.7914 209.131 83.8105 208.72 83.8487C205.193 84.1727 201.48 85.783 199.136 86.9774C197.663 87.7306 196.728 88.3192 196.728 88.3192H207.25C210.776 87.9953 214.489 86.3876 216.833 85.1912C218.306 84.438 219.241 83.8494 219.241 83.8494L209.944 83.7914Z" fill="#342E2C"/>
<path d="M192.166 101.085H234.628L236.01 95.0269H180.282C182.727 97.991 186.605 101.085 192.166 101.085Z" fill="#941914"/>
<path d="M228.827 89.6795H177C177 89.6795 178.032 92.2993 180.282 95.0275H236.01C236.41 92.0806 233.407 89.6795 228.827 89.6795Z" fill="#2E5AB5"/>
<path d="M173.222 97.7118H142.918V101.987H173.222V97.7118Z" fill="#4D4441"/>
<path d="M164.062 102.801C164.062 104.665 165.572 106.176 167.436 106.176C169.3 106.176 170.811 104.666 170.811 102.801C170.811 100.939 169.301 99.4264 167.436 99.4264C165.573 99.4264 164.062 100.939 164.062 102.801Z" fill="#342E2C"/>
<path d="M145.609 102.788C145.609 104.652 147.12 106.163 148.984 106.163C150.847 106.163 152.358 104.653 152.358 102.788C152.358 100.926 150.847 99.4146 148.984 99.4146C147.12 99.4146 145.609 100.925 145.609 102.788Z" fill="#342E2C"/>
<path d="M150.139 93.1951C151.535 92.1778 152.429 91.7028 153.785 91.7028H159.989H166.194C167.55 91.7028 168.444 92.1778 169.841 93.1951C171.16 94.1563 175 96.8926 175 96.8926L159.99 96.8939L144.981 96.8926C144.981 96.8926 148.818 94.1556 150.139 93.1951Z" fill="#C5211B"/>
<path d="M165.343 92.954C166.273 92.954 166.887 93.2558 167.846 93.8996C168.752 94.5096 170.288 95.6689 170.288 95.6689H159.989H158.951L161.665 92.954H165.343Z" fill="#D4D7C9"/>
<path d="M152.13 93.8996C153.09 93.2557 153.703 92.954 154.633 92.954H160.046H161.666L158.951 95.6689H149.691C149.691 95.6689 151.226 94.5095 152.13 93.8996Z" fill="#F1F0F0"/>
<path d="M169.394 102.801C169.394 103.881 168.516 104.758 167.436 104.758V100.845C168.516 100.845 169.394 101.722 169.394 102.801Z" fill="#D4D7C9"/>
<path d="M167.436 100.845V104.758C166.356 104.758 165.48 103.881 165.48 102.801C165.48 101.722 166.356 100.845 167.436 100.845Z" fill="#F1F0F0"/>
<path d="M150.939 102.788C150.939 103.869 150.063 104.745 148.984 104.745V100.833C150.064 100.833 150.939 101.709 150.939 102.788Z" fill="#D4D7C9"/>
<path d="M148.984 100.833V104.745C147.903 104.745 147.027 103.869 147.027 102.788C147.027 101.708 147.903 100.833 148.984 100.833Z" fill="#F1F0F0"/>
<path d="M174.999 102.788H171.676C171.671 101.529 171.117 100.4 170.243 99.6258H174.999V102.788Z" fill="#C5211B"/>
<path d="M142.332 96.8927H153.223H163.197H174.999V99.6258H170.243C169.495 98.9637 168.513 98.5616 167.435 98.5616C166.36 98.5616 165.377 98.9637 164.628 99.6258C163.754 100.4 163.2 101.529 163.196 102.788H153.223C153.223 101.531 152.674 100.403 151.805 99.6258C151.055 98.9559 150.066 98.5493 148.983 98.5493C147.899 98.5493 146.911 98.9559 146.161 99.6258H141V98.3244C141 98.3244 141.001 96.8927 142.332 96.8927Z" fill="#FFE98A"/>
<path d="M146.161 99.6258C145.293 100.402 144.744 101.531 144.744 102.788H141.001V99.6258H146.161Z" fill="#C5211B"/>
<path d="M66.3904 60.2424C66.3233 62.2907 69.1179 64.0661 71.5587 64.146L73.4192 64.207L90.3645 64.7621L103.184 65.182C106.241 65.2822 108.265 64.2472 108.265 64.2472L108.956 63.9429L106.728 61.5638L66.3904 60.2424Z" fill="#941914"/>
<path d="M106.728 61.5637L108.956 63.9428L113.842 61.7968L106.728 61.5637Z" fill="#6E2632"/>
<path d="M100.433 65.0839L88.6594 64.7062L88.7406 62.2288L97.1599 61.5895L100.433 65.0839Z" fill="#6E2632"/>
<path d="M117.34 56.6201L73.7147 55.191L73.7144 55.2001L73.6443 55.1978C72.0384 55.1452 70.4967 55.7786 69.2502 56.6401L71.6416 56.7185C71.9317 56.728 72.1586 56.9709 72.1491 57.2604C72.1396 57.5498 71.8967 57.7768 71.6072 57.7673L68.0159 57.6496C67.0286 58.6026 66.4116 59.614 66.3911 60.2424L106.729 61.5638L105.063 59.7857L115.169 60.1168L115.897 60.8941L117.454 60.2099C117.638 60.1159 117.795 60.0259 117.936 59.9383L118.041 56.7248C117.844 56.6683 117.613 56.629 117.34 56.6201Z" fill="#D4D7C9"/>
<path d="M72.1487 57.2598C72.1582 56.9697 71.9307 56.7274 71.6412 56.7179L69.2498 56.6395C68.7947 56.9535 68.3796 57.2974 68.0154 57.6497L71.6068 57.7673C71.8969 57.7768 72.1392 57.5499 72.1487 57.2598Z" fill="#342E2C"/>
<path d="M118.943 57.5676C118.945 57.3218 118.697 56.9165 118.04 56.7248L117.935 59.9383C118.792 59.4088 118.887 59.0355 118.905 58.7457C118.922 58.432 118.94 57.8787 118.943 57.5676Z" fill="#342E2C"/>
<path d="M113.888 46.8579L106.788 56.2745L114.307 56.5208L116.878 46.9559L113.888 46.8579Z" fill="#FFE98A"/>
<path d="M117.737 48.0339L114.782 47.9371C114.185 47.9176 113.685 48.3862 113.665 48.9822L118.783 49.1499C118.802 48.5538 118.334 48.0535 117.737 48.0339Z" fill="#D4D7C9"/>
<path d="M88.6168 66.0079L88.8506 65.9844C89.7688 65.7985 90.546 65.5183 90.5706 64.7681L88.6594 64.7055L88.6168 66.0079Z" fill="#4D4441"/>
<path d="M88.9339 63.4431L88.7021 63.4038L88.6595 64.7062L90.5707 64.7688C90.5923 64.1082 89.8125 63.7013 88.9339 63.4431Z" fill="#342E2C"/>
<path d="M97.4001 62.5125C97.4316 61.5533 96.6788 60.7489 95.7196 60.7175L85.8821 60.3953C84.9387 60.3644 84.1487 61.0907 84.0918 62.0272C84.0906 62.0271 84.0899 62.0271 84.0887 62.0271L84.006 64.5531L88.6602 64.7056L88.7029 63.4033L88.7414 62.2283L97.4002 62.5119L97.4001 62.5125Z" fill="#FFE98A"/>
<path d="M84.0059 64.5538L83.9231 67.0799C84.0436 67.1076 84.1735 67.1271 84.3204 67.1319L88.5942 66.6978L88.6168 66.0086L88.6595 64.7062L84.0059 64.5538Z" fill="#1F7D8D"/>
<path d="M84.0887 62.0276C83.035 62.1981 82.8658 63.2456 82.8242 64.515L84.0059 64.5537L84.0887 62.0276Z" fill="#C5211B"/>
<path d="M82.8242 64.5151C82.7826 65.7851 82.8829 66.8408 83.9232 67.0799L84.0059 64.5538L82.8242 64.5151Z" fill="#941914"/>
<path d="M113.339 55.0955C113.167 55.2565 112.896 55.2476 112.735 55.0758L110.796 53.005C110.635 52.8332 110.644 52.562 110.816 52.4005C110.988 52.2396 111.259 52.2485 111.42 52.4203L113.359 54.491C113.521 54.6628 113.512 54.9328 113.339 55.0955Z" fill="#C5211B"/>
<path d="M114.511 53.4215C114.34 53.583 114.068 53.5741 113.907 53.4017L111.968 51.3316C111.807 51.1597 111.815 50.8879 111.988 50.727C112.16 50.5661 112.431 50.575 112.592 50.7468L114.531 52.8169C114.693 52.9894 114.684 53.26 114.511 53.4215Z" fill="#C5211B"/>
<path d="M115.738 51.1963L113.665 48.9821L116.31 49.0688L115.738 51.1963Z" fill="#1F7D8D"/>
<path d="M75.0509 59.2156C75.0429 59.4599 74.8384 59.6521 74.5934 59.6441L73.7115 59.6152C73.4665 59.6072 73.275 59.4026 73.283 59.1576L73.3466 57.2166C73.3546 56.9722 73.5592 56.78 73.8041 56.7881L74.686 56.8169C74.9304 56.825 75.1226 57.0295 75.1145 57.2745L75.0509 59.2156Z" fill="#9FA197"/>
<path d="M77.3066 57.7148C77.302 57.855 77.1849 57.9658 77.0442 57.9612L76.5383 57.9447C76.3982 57.9401 76.2879 57.8218 76.2925 57.6816L76.3108 57.1252C76.3153 56.9856 76.4331 56.8748 76.5732 56.8794L77.079 56.8959C77.2198 56.9006 77.3294 57.0188 77.3249 57.1584L77.3066 57.7148Z" fill="#342E2C"/>
<path d="M79.3354 57.7812C79.3309 57.9214 79.2131 58.0322 79.073 58.0277L78.5665 58.0111C78.4264 58.0065 78.3168 57.8882 78.3213 57.748L78.3396 57.1916C78.3441 57.052 78.4613 56.9412 78.6014 56.9458L79.1079 56.9624C79.248 56.967 79.3582 57.0853 79.3537 57.2248L79.3354 57.7812Z" fill="#342E2C"/>
<path d="M81.3649 57.8478C81.3603 57.9879 81.2426 58.0988 81.1024 58.0942L80.5959 58.0776C80.4558 58.073 80.3456 57.9547 80.3502 57.8145L80.3684 57.2581C80.373 57.1186 80.4907 57.0077 80.6308 57.0123L81.1373 57.0289C81.2774 57.0335 81.3877 57.1518 81.3831 57.2914L81.3649 57.8478Z" fill="#342E2C"/>
<path d="M83.3937 57.9142C83.3891 58.0543 83.2714 58.1652 83.1312 58.1606L82.6247 58.144C82.4846 58.1394 82.3744 58.0211 82.379 57.8809L82.3972 57.3245C82.4018 57.185 82.5189 57.0741 82.6596 57.0787L83.1661 57.0953C83.3063 57.0999 83.4165 57.2182 83.4119 57.3578L83.3937 57.9142Z" fill="#342E2C"/>
<path d="M85.423 57.9807C85.4184 58.1209 85.3006 58.2317 85.1605 58.2271L84.654 58.2105C84.5133 58.2059 84.4037 58.0876 84.4083 57.9474L84.4265 57.391C84.4311 57.2515 84.5482 57.1406 84.6889 57.1452L85.1954 57.1618C85.3355 57.1664 85.4458 57.2847 85.4412 57.4243L85.423 57.9807Z" fill="#342E2C"/>
<path d="M87.452 58.0472C87.4474 58.1874 87.3297 58.2982 87.1895 58.2936L86.6831 58.277C86.5429 58.2724 86.4327 58.1541 86.4373 58.014L86.4555 57.4576C86.4601 57.318 86.5778 57.2071 86.718 57.2117L87.2244 57.2283C87.3646 57.2329 87.4748 57.3512 87.4702 57.4908L87.452 58.0472Z" fill="#342E2C"/>
<path d="M89.4813 58.1136C89.4767 58.2538 89.359 58.3646 89.2188 58.36L88.7124 58.3434C88.5722 58.3389 88.462 58.2206 88.4666 58.0804L88.4848 57.524C88.4894 57.3844 88.6071 57.2736 88.7473 57.2782L89.2537 57.2948C89.3939 57.2993 89.5041 57.4177 89.4995 57.5572L89.4813 58.1136Z" fill="#342E2C"/>
<path d="M91.5099 58.18C91.5053 58.3202 91.3876 58.4311 91.2468 58.4264L90.741 58.4099C90.6008 58.4053 90.4906 58.287 90.4952 58.1468L90.5134 57.5904C90.518 57.4508 90.6363 57.34 90.7759 57.3446L91.2817 57.3612C91.4219 57.3657 91.5327 57.4841 91.5281 57.6236L91.5099 58.18Z" fill="#342E2C"/>
<path d="M93.5389 58.2466C93.5343 58.3867 93.4166 58.4976 93.2759 58.493L92.77 58.4764C92.6299 58.4718 92.5196 58.3535 92.5242 58.2133L92.5425 57.6569C92.547 57.5173 92.6647 57.4065 92.8049 57.4111L93.3107 57.4277C93.4515 57.4323 93.5617 57.5506 93.5572 57.6901L93.5389 58.2466Z" fill="#342E2C"/>
<path d="M95.5677 58.313C95.5631 58.4532 95.446 58.564 95.3059 58.5595L94.7994 58.5429C94.6593 58.5383 94.5497 58.42 94.5543 58.2798L94.5725 57.7234C94.5771 57.5838 94.6942 57.473 94.8343 57.4776L95.3408 57.4942C95.4809 57.4988 95.5905 57.617 95.586 57.7566L95.5677 58.313Z" fill="#342E2C"/>
<path d="M97.5972 58.3795C97.5926 58.5196 97.4755 58.6305 97.3347 58.6259L96.8282 58.6093C96.6881 58.6047 96.5785 58.4864 96.5831 58.3462L96.6013 57.7898C96.6059 57.6503 96.7236 57.5394 96.8631 57.544L97.3696 57.5606C97.5098 57.5652 97.62 57.6835 97.6154 57.823L97.5972 58.3795Z" fill="#342E2C"/>
<path d="M99.6265 58.4459C99.6219 58.5861 99.5041 58.6969 99.3634 58.6923L98.8569 58.6757C98.7168 58.6711 98.6066 58.5528 98.6111 58.4127L98.6294 57.8562C98.6339 57.7167 98.7517 57.6058 98.8918 57.6104L99.3983 57.627C99.5384 57.6316 99.6493 57.7499 99.6447 57.8895L99.6265 58.4459Z" fill="#342E2C"/>
<path d="M101.655 58.5124C101.651 58.6526 101.534 58.7634 101.393 58.7588L100.887 58.7423C100.746 58.7376 100.636 58.6193 100.641 58.4792L100.659 57.9228C100.663 57.7832 100.781 57.6723 100.922 57.677L101.428 57.6935C101.569 57.6982 101.678 57.8164 101.674 57.956L101.655 58.5124Z" fill="#342E2C"/>
<path d="M114.307 56.5207L106.788 56.2744L110.235 59.9551L105.062 59.7857L106.728 61.5637L113.842 61.7968L115.897 60.894L117.659 60.0995L114.307 56.5207Z" fill="#9FA197"/>
<path d="M113.487 58.3211L106.857 58.1039C105.898 58.0725 105.094 58.8252 105.062 59.7857L115.169 60.1168C115.199 59.1563 114.447 58.3526 113.487 58.3211Z" fill="#FFE98A"/>
<path d="M325.339 59.389L319.83 58.719L316.155 62.877L315.09 57.43L310 55.22L314.85 52.525L315.38 47L319.442 50.78L324.86 49.577L322.52 54.609L325.339 59.389Z" fill="white"/>
<path d="M234.554 62.424L232.09 62.898L233.212 60.654L232 58.457L234.481 58.832L236.196 57L236.606 59.474L238.877 60.539L236.651 61.695L236.341 64.184L234.554 62.424Z" fill="white"/>
<path d="M85.554 134.424L83.09 134.897L84.212 132.654L83 130.457L85.481 130.832L87.195 129L87.606 131.474L89.877 132.539L87.651 133.694L87.341 136.184L85.554 134.424Z" fill="white"/>
<path d="M49.646 68.26L44.051 67.737L40.448 72.05L39.216 66.567L34 64.473L38.835 61.608L39.214 56L43.434 59.712L48.884 58.34L46.657 63.501L49.646 68.26Z" fill="white"/>
<path d="M52.289 140.497L50.168 141.173L49.524 143.304L48.225 141.496L46 141.54L47.318 139.747L46.588 137.645L48.701 138.344L50.475 137L50.462 139.226L52.289 140.497Z" fill="white"/>
<path d="M110.866 149.946C110.185 147.64 108.225 145.974 105.912 145.974C105.567 145.974 105.231 146.012 104.905 146.081C104.363 142.412 101.48 139.611 98.0055 139.611C96.3624 139.611 94.8523 140.239 93.659 141.288C92.4541 138.96 90.1877 137.39 87.5852 137.39C83.9538 137.39 80.9698 140.448 80.626 144.364C80.571 144.36 80.5143 144.357 80.4555 144.357C79.9022 144.357 79.3708 144.468 78.8781 144.669C78.5538 144.059 78.1478 143.508 77.6805 143.031C77.6608 141.648 76.6429 140.532 75.3862 140.532C75.3693 140.532 75.3521 140.535 75.3352 140.535C75.0243 139.538 74.1713 138.821 73.1647 138.821C72.5288 138.821 71.953 139.107 71.537 139.567C70.7788 137.28 68.7926 135.649 66.4592 135.649C65.9653 135.649 65.4861 135.723 65.0325 135.861C64.081 134.145 62.3701 133 60.4161 133C57.4321 133 55.0102 135.674 55.0102 138.973C55.0102 139.07 55.0136 139.166 55.0164 139.263C53.5626 139.411 52.2751 140.197 51.3846 141.365C50.9395 139.311 49.2692 137.782 47.2746 137.782C44.9374 137.782 43.0413 139.876 43.0413 142.458C43.0413 142.604 43.0491 142.748 43.0607 142.891H43V143.379H65.1004C65.35 144.561 66.1361 145.513 67.167 145.895C66.9249 146.645 66.7935 147.453 66.7935 148.297C66.7935 148.864 66.8536 149.416 66.9662 149.946C67.1207 150.666 67.3722 151.347 67.7066 151.966C68.8386 154.061 70.9117 155.466 73.2808 155.466C75.048 155.466 76.6498 154.684 77.8209 153.418C78.5632 154.007 79.4734 154.356 80.4555 154.356C80.8916 154.356 81.3088 154.287 81.7079 154.16C81.6964 154.292 81.6917 154.423 81.6917 154.557C81.6917 157.01 83.4911 159 85.7132 159C87.9337 159 89.7332 157.01 89.7332 154.557C89.7332 153.854 89.5871 153.19 89.3228 152.6C89.847 152.451 90.3487 152.236 90.8182 151.966H92.4069C93.6821 153.846 95.7159 155.062 98.0058 155.062C99.1597 155.062 100.247 154.751 101.206 154.206C102.152 153.666 102.973 152.898 103.604 151.966H111V150.493V149.946H110.866V149.946Z" fill="#DCEAF9"/>
<rect x="36.5" y="133.5" width="139" height="33" rx="16.5" fill="#B3002D"/>
<path d="M54.831 148.717H53.2372C53.1918 148.456 53.108 148.224 52.9858 148.023C52.8636 147.818 52.7116 147.645 52.5298 147.503C52.348 147.361 52.1406 147.254 51.9077 147.183C51.6776 147.109 51.429 147.072 51.1619 147.072C50.6875 147.072 50.267 147.192 49.9006 147.43C49.5341 147.666 49.2472 148.013 49.0398 148.47C48.8324 148.925 48.7287 149.48 48.7287 150.136C48.7287 150.804 48.8324 151.366 49.0398 151.824C49.25 152.278 49.5369 152.622 49.9006 152.855C50.267 153.085 50.6861 153.2 51.1577 153.2C51.419 153.2 51.6634 153.166 51.8906 153.098C52.1207 153.027 52.3267 152.923 52.5085 152.787C52.6932 152.651 52.848 152.483 52.973 152.284C53.1009 152.085 53.1889 151.858 53.2372 151.602L54.831 151.611C54.7713 152.026 54.642 152.415 54.4432 152.778C54.2472 153.142 53.9901 153.463 53.6719 153.741C53.3537 154.017 52.9815 154.233 52.5554 154.389C52.1293 154.543 51.6563 154.619 51.1364 154.619C50.3693 154.619 49.6847 154.442 49.0824 154.087C48.4801 153.732 48.0057 153.219 47.6591 152.548C47.3125 151.878 47.1392 151.074 47.1392 150.136C47.1392 149.196 47.3139 148.392 47.6634 147.724C48.0128 147.054 48.4886 146.541 49.0909 146.186C49.6932 145.831 50.375 145.653 51.1364 145.653C51.6222 145.653 52.0739 145.722 52.4915 145.858C52.9091 145.994 53.2813 146.195 53.608 146.459C53.9347 146.72 54.2031 147.041 54.4134 147.422C54.6264 147.8 54.7656 148.232 54.831 148.717ZM56.2106 154.5V147.955H57.7063V149.045H57.7745C57.8938 148.668 58.0984 148.376 58.3881 148.172C58.6808 147.964 59.0146 147.861 59.3896 147.861C59.4748 147.861 59.57 147.865 59.6751 147.874C59.783 147.879 59.8725 147.889 59.9435 147.903V149.322C59.8782 149.3 59.7745 149.28 59.6325 149.263C59.4933 149.243 59.3583 149.233 59.2276 149.233C58.9464 149.233 58.6935 149.294 58.4691 149.416C58.2475 149.536 58.0728 149.702 57.945 149.915C57.8171 150.128 57.7532 150.374 57.7532 150.652V154.5H56.2106ZM63.5966 154.628C62.9403 154.628 62.3736 154.491 61.8963 154.219C61.4219 153.943 61.0568 153.554 60.8011 153.051C60.5455 152.545 60.4176 151.95 60.4176 151.266C60.4176 150.592 60.5455 150.001 60.8011 149.493C61.0597 148.982 61.4205 148.584 61.8835 148.3C62.3466 148.013 62.8906 147.869 63.5156 147.869C63.919 147.869 64.2997 147.935 64.6577 148.065C65.0185 148.193 65.3366 148.392 65.6122 148.662C65.8906 148.932 66.1094 149.276 66.2685 149.693C66.4276 150.108 66.5071 150.602 66.5071 151.176V151.649H61.142V150.609H65.0284C65.0256 150.314 64.9616 150.051 64.8366 149.821C64.7116 149.588 64.5369 149.405 64.3125 149.271C64.0909 149.138 63.8324 149.071 63.5369 149.071C63.2216 149.071 62.9446 149.148 62.706 149.301C62.4673 149.452 62.2813 149.651 62.1477 149.898C62.017 150.142 61.9503 150.411 61.9474 150.703V151.611C61.9474 151.991 62.017 152.318 62.1562 152.591C62.2955 152.861 62.4901 153.068 62.7401 153.213C62.9901 153.355 63.2827 153.426 63.6179 153.426C63.8423 153.426 64.0455 153.395 64.2273 153.332C64.4091 153.267 64.5668 153.172 64.7003 153.047C64.8338 152.922 64.9347 152.767 65.0028 152.582L66.4432 152.744C66.3523 153.125 66.179 153.457 65.9233 153.741C65.6705 154.023 65.3466 154.241 64.9517 154.398C64.5568 154.551 64.1051 154.628 63.5966 154.628ZM69.6957 154.632C69.2809 154.632 68.9073 154.558 68.5749 154.411C68.2454 154.26 67.984 154.038 67.7908 153.746C67.6005 153.453 67.5053 153.092 67.5053 152.663C67.5053 152.294 67.5735 151.989 67.7099 151.747C67.8462 151.506 68.0323 151.312 68.2681 151.168C68.5039 151.023 68.7695 150.913 69.065 150.839C69.3633 150.763 69.6715 150.707 69.9897 150.673C70.3732 150.634 70.6843 150.598 70.9229 150.567C71.1616 150.533 71.3349 150.482 71.4428 150.413C71.5536 150.342 71.609 150.233 71.609 150.085V150.06C71.609 149.739 71.5138 149.49 71.3235 149.314C71.1332 149.138 70.859 149.05 70.5011 149.05C70.1232 149.05 69.8235 149.132 69.6019 149.297C69.3832 149.462 69.2354 149.656 69.1587 149.881L67.7184 149.676C67.832 149.278 68.0195 148.946 68.2809 148.679C68.5423 148.409 68.8619 148.207 69.2397 148.074C69.6175 147.938 70.0352 147.869 70.4925 147.869C70.8079 147.869 71.1218 147.906 71.4343 147.98C71.7468 148.054 72.0323 148.176 72.2908 148.347C72.5494 148.514 72.7567 148.743 72.913 149.033C73.0721 149.322 73.1516 149.685 73.1516 150.119V154.5H71.6687V153.601H71.6175C71.5238 153.783 71.3917 153.953 71.2212 154.112C71.0536 154.268 70.842 154.395 70.5863 154.491C70.3335 154.585 70.0366 154.632 69.6957 154.632ZM70.0962 153.499C70.4059 153.499 70.6744 153.437 70.9016 153.315C71.1289 153.19 71.3036 153.026 71.4258 152.821C71.5508 152.616 71.6133 152.393 71.6133 152.152V151.381C71.565 151.42 71.4826 151.457 71.3661 151.491C71.2525 151.526 71.1246 151.555 70.9826 151.581C70.8406 151.607 70.6999 151.629 70.5607 151.649C70.4215 151.669 70.3008 151.686 70.1985 151.7C69.9684 151.732 69.7624 151.783 69.5806 151.854C69.3988 151.925 69.2553 152.024 69.1502 152.152C69.0451 152.277 68.9925 152.439 68.9925 152.638C68.9925 152.922 69.0962 153.136 69.3036 153.281C69.511 153.426 69.7752 153.499 70.0962 153.499ZM77.9712 147.955V149.148H74.2085V147.955H77.9712ZM75.1374 146.386H76.68V152.531C76.68 152.739 76.7113 152.898 76.7738 153.009C76.8391 153.116 76.9244 153.19 77.0295 153.23C77.1346 153.27 77.2511 153.29 77.3789 153.29C77.4755 153.29 77.5636 153.283 77.6431 153.268C77.7255 153.254 77.788 153.241 77.8306 153.23L78.0906 154.436C78.0082 154.464 77.8903 154.496 77.7369 154.53C77.5863 154.564 77.4016 154.584 77.1829 154.589C76.7965 154.601 76.4485 154.543 76.1388 154.415C75.8292 154.284 75.5835 154.082 75.4016 153.81C75.2227 153.537 75.1346 153.196 75.1374 152.787V146.386ZM82.0888 154.628C81.4325 154.628 80.8658 154.491 80.3885 154.219C79.9141 153.943 79.549 153.554 79.2933 153.051C79.0376 152.545 78.9098 151.95 78.9098 151.266C78.9098 150.592 79.0376 150.001 79.2933 149.493C79.5518 148.982 79.9126 148.584 80.3757 148.3C80.8388 148.013 81.3828 147.869 82.0078 147.869C82.4112 147.869 82.7919 147.935 83.1499 148.065C83.5107 148.193 83.8288 148.392 84.1044 148.662C84.3828 148.932 84.6016 149.276 84.7607 149.693C84.9197 150.108 84.9993 150.602 84.9993 151.176V151.649H79.6342V150.609H83.5206C83.5178 150.314 83.4538 150.051 83.3288 149.821C83.2038 149.588 83.0291 149.405 82.8047 149.271C82.5831 149.138 82.3246 149.071 82.0291 149.071C81.7138 149.071 81.4368 149.148 81.1982 149.301C80.9595 149.452 80.7734 149.651 80.6399 149.898C80.5092 150.142 80.4425 150.411 80.4396 150.703V151.611C80.4396 151.991 80.5092 152.318 80.6484 152.591C80.7876 152.861 80.9822 153.068 81.2322 153.213C81.4822 153.355 81.7749 153.426 82.1101 153.426C82.3345 153.426 82.5376 153.395 82.7195 153.332C82.9013 153.267 83.0589 153.172 83.1925 153.047C83.326 152.922 83.4268 152.767 83.495 152.582L84.9354 152.744C84.8445 153.125 84.6712 153.457 84.4155 153.741C84.1626 154.023 83.8388 154.241 83.4439 154.398C83.049 154.551 82.5973 154.628 82.0888 154.628ZM96.521 145.773V154.5H95.1147L91.0025 148.555H90.93V154.5H89.3491V145.773H90.7638L94.8718 151.722H94.9485V145.773H96.521ZM101.073 154.628C100.417 154.628 99.8501 154.491 99.3729 154.219C98.8984 153.943 98.5334 153.554 98.2777 153.051C98.022 152.545 97.8942 151.95 97.8942 151.266C97.8942 150.592 98.022 150.001 98.2777 149.493C98.5362 148.982 98.897 148.584 99.3601 148.3C99.8232 148.013 100.367 147.869 100.992 147.869C101.396 147.869 101.776 147.935 102.134 148.065C102.495 148.193 102.813 148.392 103.089 148.662C103.367 148.932 103.586 149.276 103.745 149.693C103.904 150.108 103.984 150.602 103.984 151.176V151.649H98.6186V150.609H102.505C102.502 150.314 102.438 150.051 102.313 149.821C102.188 149.588 102.013 149.405 101.789 149.271C101.567 149.138 101.309 149.071 101.013 149.071C100.698 149.071 100.421 149.148 100.183 149.301C99.9439 149.452 99.7578 149.651 99.6243 149.898C99.4936 150.142 99.4268 150.411 99.424 150.703V151.611C99.424 151.991 99.4936 152.318 99.6328 152.591C99.772 152.861 99.9666 153.068 100.217 153.213C100.467 153.355 100.759 153.426 101.094 153.426C101.319 153.426 101.522 153.395 101.704 153.332C101.886 153.267 102.043 153.172 102.177 153.047C102.31 152.922 102.411 152.767 102.479 152.582L103.92 152.744C103.829 153.125 103.656 153.457 103.4 153.741C103.147 154.023 102.823 154.241 102.428 154.398C102.033 154.551 101.582 154.628 101.073 154.628ZM106.604 154.5L104.755 147.955H106.327L107.478 152.557H107.538L108.714 147.955H110.269L111.445 152.531H111.509L112.643 147.955H114.219L112.366 154.5H110.759L109.532 150.077H109.442L108.215 154.5H106.604ZM121.784 145.773H123.353V151.909C123.35 152.472 123.23 152.956 122.995 153.362C122.759 153.766 122.429 154.077 122.006 154.295C121.586 154.511 121.096 154.619 120.536 154.619C120.025 154.619 119.564 154.528 119.155 154.347C118.749 154.162 118.426 153.889 118.188 153.528C117.949 153.168 117.83 152.719 117.83 152.182H119.402C119.405 152.418 119.456 152.621 119.556 152.791C119.658 152.962 119.799 153.092 119.978 153.183C120.157 153.274 120.363 153.32 120.596 153.32C120.848 153.32 121.063 153.267 121.239 153.162C121.415 153.054 121.549 152.895 121.64 152.685C121.733 152.474 121.782 152.216 121.784 151.909V145.773ZM127.855 154.628C127.216 154.628 126.662 154.487 126.193 154.206C125.724 153.925 125.36 153.531 125.102 153.026C124.846 152.52 124.718 151.929 124.718 151.253C124.718 150.577 124.846 149.984 125.102 149.476C125.36 148.967 125.724 148.572 126.193 148.291C126.662 148.01 127.216 147.869 127.855 147.869C128.494 147.869 129.048 148.01 129.517 148.291C129.985 148.572 130.348 148.967 130.603 149.476C130.862 149.984 130.991 150.577 130.991 151.253C130.991 151.929 130.862 152.52 130.603 153.026C130.348 153.531 129.985 153.925 129.517 154.206C129.048 154.487 128.494 154.628 127.855 154.628ZM127.863 153.392C128.21 153.392 128.5 153.297 128.733 153.107C128.966 152.913 129.139 152.655 129.252 152.331C129.369 152.007 129.427 151.646 129.427 151.249C129.427 150.848 129.369 150.486 129.252 150.162C129.139 149.835 128.966 149.575 128.733 149.382C128.5 149.189 128.21 149.092 127.863 149.092C127.508 149.092 127.213 149.189 126.977 149.382C126.744 149.575 126.569 149.835 126.453 150.162C126.339 150.486 126.282 150.848 126.282 151.249C126.282 151.646 126.339 152.007 126.453 152.331C126.569 152.655 126.744 152.913 126.977 153.107C127.213 153.297 127.508 153.392 127.863 153.392ZM136.472 151.747V147.955H138.015V154.5H136.519V153.337H136.451C136.303 153.703 136.06 154.003 135.722 154.236C135.387 154.469 134.974 154.585 134.482 154.585C134.053 154.585 133.674 154.49 133.344 154.3C133.018 154.107 132.762 153.827 132.577 153.46C132.393 153.091 132.3 152.645 132.3 152.122V147.955H133.843V151.884C133.843 152.298 133.957 152.628 134.184 152.872C134.411 153.116 134.71 153.239 135.079 153.239C135.306 153.239 135.526 153.183 135.739 153.072C135.952 152.962 136.127 152.797 136.263 152.578C136.403 152.357 136.472 152.08 136.472 151.747ZM139.601 154.5V147.955H141.097V149.045H141.165C141.284 148.668 141.489 148.376 141.779 148.172C142.071 147.964 142.405 147.861 142.78 147.861C142.865 147.861 142.961 147.865 143.066 147.874C143.174 147.879 143.263 147.889 143.334 147.903V149.322C143.269 149.3 143.165 149.28 143.023 149.263C142.884 149.243 142.749 149.233 142.618 149.233C142.337 149.233 142.084 149.294 141.86 149.416C141.638 149.536 141.463 149.702 141.336 149.915C141.208 150.128 141.144 150.374 141.144 150.652V154.5H139.601ZM145.902 150.665V154.5H144.359V147.955H145.833V149.067H145.91C146.061 148.7 146.301 148.409 146.63 148.193C146.963 147.977 147.373 147.869 147.862 147.869C148.314 147.869 148.707 147.966 149.042 148.159C149.38 148.352 149.642 148.632 149.826 148.999C150.014 149.365 150.106 149.81 150.103 150.332V154.5H148.561V150.571C148.561 150.134 148.447 149.791 148.22 149.544C147.995 149.297 147.684 149.173 147.287 149.173C147.017 149.173 146.777 149.233 146.566 149.352C146.359 149.469 146.196 149.638 146.076 149.859C145.96 150.081 145.902 150.349 145.902 150.665ZM154.569 154.628C153.913 154.628 153.346 154.491 152.869 154.219C152.395 153.943 152.029 153.554 151.774 153.051C151.518 152.545 151.39 151.95 151.39 151.266C151.39 150.592 151.518 150.001 151.774 149.493C152.032 148.982 152.393 148.584 152.856 148.3C153.319 148.013 153.863 147.869 154.488 147.869C154.892 147.869 155.272 147.935 155.63 148.065C155.991 148.193 156.309 148.392 156.585 148.662C156.863 148.932 157.082 149.276 157.241 149.693C157.4 150.108 157.48 150.602 157.48 151.176V151.649H152.115V150.609H156.001C155.998 150.314 155.934 150.051 155.809 149.821C155.684 149.588 155.51 149.405 155.285 149.271C155.064 149.138 154.805 149.071 154.51 149.071C154.194 149.071 153.917 149.148 153.679 149.301C153.44 149.452 153.254 149.651 153.12 149.898C152.99 150.142 152.923 150.411 152.92 150.703V151.611C152.92 151.991 152.99 152.318 153.129 152.591C153.268 152.861 153.463 153.068 153.713 153.213C153.963 153.355 154.255 153.426 154.591 153.426C154.815 153.426 155.018 153.395 155.2 153.332C155.382 153.267 155.539 153.172 155.673 153.047C155.806 152.922 155.907 152.767 155.975 152.582L157.416 152.744C157.325 153.125 157.152 153.457 156.896 153.741C156.643 154.023 156.319 154.241 155.924 154.398C155.529 154.551 155.078 154.628 154.569 154.628ZM159.556 156.955C159.346 156.955 159.151 156.938 158.972 156.903C158.796 156.872 158.656 156.835 158.55 156.793L158.908 155.591C159.133 155.656 159.333 155.688 159.509 155.685C159.685 155.682 159.84 155.626 159.974 155.518C160.11 155.413 160.225 155.237 160.319 154.99L160.451 154.636L158.077 147.955H159.714L161.222 152.898H161.29L162.803 147.955H164.444L161.823 155.293C161.701 155.639 161.539 155.936 161.337 156.183C161.136 156.433 160.888 156.624 160.596 156.754C160.306 156.888 159.96 156.955 159.556 156.955Z" fill="white"/>
</g>
</g>
<defs>
<filter id="filter0_d_49_499" x="0" y="0" width="365" height="200" filterUnits="userSpaceOnUse" color-interpolation-filters="sRGB">
<feFlood flood-opacity="0" result="BackgroundImageFix"/>
<feColorMatrix in="SourceAlpha" type="matrix" values="0 0 0 0 0 0 0 0 0 0 0 0 0 0 0 0 0 0 127 0" result="hardAlpha"/>
<feOffset dy="4"/>
<feGaussianBlur stdDeviation="7.5"/>
<feComposite in2="hardAlpha" operator="out"/>
<feColorMatrix type="matrix" values="0 0 0 0 0.301961 0 0 0 0 0 0 0 0 0 0.0745098 0 0 0 0.1 0"/>
<feBlend mode="normal" in2="BackgroundImageFix" result="effect1_dropShadow_49_499"/>
<feBlend mode="normal" in="SourceGraphic" in2="effect1_dropShadow_49_499" result="shape"/>
</filter>
<clipPath id="clip0_49_499">
<rect x="15" y="11" width="335" height="170" rx="10" fill="white"/>
</clipPath>
</defs>
</svg>
