<svg width="188" height="32" viewBox="0 0 188 32" fill="none" xmlns="http://www.w3.org/2000/svg">
<path d="M15.5245 1.46352C15.6741 1.00287 16.3259 1.00287 16.4755 1.46353L19.48 10.7102C19.5469 10.9162 19.7389 11.0557 19.9555 11.0557H29.6781C30.1624 11.0557 30.3638 11.6755 29.972 11.9602L22.1062 17.675C21.931 17.8023 21.8577 18.028 21.9246 18.234L24.929 27.4807C25.0787 27.9414 24.5515 28.3245 24.1596 28.0398L16.2939 22.325C16.1186 22.1977 15.8814 22.1977 15.7061 22.325L7.84038 28.0398C7.44853 28.3245 6.92129 27.9414 7.07096 27.4807L10.0754 18.234C10.1423 18.028 10.069 17.8023 9.89377 17.675L2.02804 11.9602C1.63619 11.6755 1.83758 11.0557 2.32194 11.0557H12.0445C12.2611 11.0557 12.4531 10.9162 12.52 10.7102L15.5245 1.46352Z" fill="#FF9604"/>
<path d="M54.5245 1.46352C54.6741 1.00287 55.3259 1.00287 55.4755 1.46353L58.48 10.7102C58.5469 10.9162 58.7389 11.0557 58.9555 11.0557H68.6781C69.1624 11.0557 69.3638 11.6755 68.972 11.9602L61.1062 17.675C60.931 17.8023 60.8577 18.028 60.9246 18.234L63.929 27.4807C64.0787 27.9414 63.5515 28.3245 63.1596 28.0398L55.2939 22.325C55.1186 22.1977 54.8814 22.1977 54.7061 22.325L46.8404 28.0398C46.4485 28.3245 45.9213 27.9414 46.071 27.4807L49.0754 18.234C49.1423 18.028 49.069 17.8023 48.8938 17.675L41.028 11.9602C40.6362 11.6755 40.8376 11.0557 41.3219 11.0557H51.0445C51.2611 11.0557 51.4531 10.9162 51.52 10.7102L54.5245 1.46352Z" fill="#FF9604"/>
<path d="M93.5245 1.46352C93.6741 1.00287 94.3259 1.00287 94.4755 1.46353L97.48 10.7102C97.5469 10.9162 97.7389 11.0557 97.9555 11.0557H107.678C108.162 11.0557 108.364 11.6755 107.972 11.9602L100.106 17.675C99.931 17.8023 99.8577 18.028 99.9246 18.234L102.929 27.4807C103.079 27.9414 102.551 28.3245 102.16 28.0398L94.2939 22.325C94.1186 22.1977 93.8814 22.1977 93.7061 22.325L85.8404 28.0398C85.4485 28.3245 84.9213 27.9414 85.071 27.4807L88.0754 18.234C88.1423 18.028 88.069 17.8023 87.8938 17.675L80.028 11.9602C79.6362 11.6755 79.8376 11.0557 80.3219 11.0557H90.0445C90.2611 11.0557 90.4531 10.9162 90.52 10.7102L93.5245 1.46352Z" fill="#FF9604"/>
<path d="M132.524 1.46352C132.674 1.00287 133.326 1.00287 133.476 1.46353L136.48 10.7102C136.547 10.9162 136.739 11.0557 136.955 11.0557H146.678C147.162 11.0557 147.364 11.6755 146.972 11.9602L139.106 17.675C138.931 17.8023 138.858 18.028 138.925 18.234L141.929 27.4807C142.079 27.9414 141.551 28.3245 141.16 28.0398L133.294 22.325C133.119 22.1977 132.881 22.1977 132.706 22.325L124.84 28.0398C124.449 28.3245 123.921 27.9414 124.071 27.4807L127.075 18.234C127.142 18.028 127.069 17.8023 126.894 17.675L119.028 11.9602C118.636 11.6755 118.838 11.0557 119.322 11.0557H129.045C129.261 11.0557 129.453 10.9162 129.52 10.7102L132.524 1.46352Z" fill="#FF9604"/>
<path d="M171.524 1.46352C171.674 1.00287 172.326 1.00287 172.476 1.46353L175.48 10.7102C175.547 10.9162 175.739 11.0557 175.955 11.0557H185.678C186.162 11.0557 186.364 11.6755 185.972 11.9602L178.106 17.675C177.931 17.8023 177.858 18.028 177.925 18.234L180.929 27.4807C181.079 27.9414 180.551 28.3245 180.16 28.0398L172.294 22.325C172.119 22.1977 171.881 22.1977 171.706 22.325L163.84 28.0398C163.449 28.3245 162.921 27.9414 163.071 27.4807L166.075 18.234C166.142 18.028 166.069 17.8023 165.894 17.675L158.028 11.9602C157.636 11.6755 157.838 11.0557 158.322 11.0557H168.045C168.261 11.0557 168.453 10.9162 168.52 10.7102L171.524 1.46352Z" fill="#FF9604"/>
</svg>
