<svg width="16" height="20" viewBox="0 0 16 20" fill="none" xmlns="http://www.w3.org/2000/svg">
<path fill-rule="evenodd" clip-rule="evenodd" d="M8.58165 1C8.58165 0.734784 8.47629 0.48043 8.28875 0.292893C8.10122 0.105357 7.84686 0 7.58165 0C7.31643 0 7.06208 0.105357 6.87454 0.292893C6.687 0.48043 6.58165 0.734784 6.58165 1V1.75H6.02465C4.95268 1.74993 3.92097 2.15839 3.13957 2.89224C2.35817 3.62608 1.8858 4.63014 1.81865 5.7L1.59765 9.234C1.51221 10.5812 1.05989 11.8794 0.289646 12.988C0.130279 13.2171 0.0329033 13.4835 0.00698854 13.7613C-0.0189262 14.0392 0.0275022 14.319 0.141758 14.5736C0.256015 14.8281 0.43421 15.0488 0.659014 15.2142C0.883818 15.3795 1.14758 15.4838 1.42465 15.517L4.83165 15.925V17C4.83165 17.7293 5.12138 18.4288 5.6371 18.9445C6.15283 19.4603 6.8523 19.75 7.58165 19.75C8.31099 19.75 9.01046 19.4603 9.52619 18.9445C10.0419 18.4288 10.3316 17.7293 10.3316 17V15.925L13.7386 15.516C14.0156 15.4827 14.2791 15.3784 14.5038 15.2131C14.7285 15.0478 14.9066 14.8273 15.0208 14.5729C15.135 14.3184 15.1815 14.0388 15.1557 13.7611C15.1299 13.4834 15.0328 13.2171 14.8736 12.988C14.1034 11.8794 13.6511 10.5812 13.5656 9.234L13.3446 5.701C13.2777 4.63096 12.8055 3.62665 12.024 2.8926C11.2426 2.15855 10.2108 1.74995 9.13865 1.75H8.58165V1ZM6.33165 17C6.33165 17.3315 6.46334 17.6495 6.69776 17.8839C6.93218 18.1183 7.25013 18.25 7.58165 18.25C7.91317 18.25 8.23111 18.1183 8.46553 17.8839C8.69995 17.6495 8.83165 17.3315 8.83165 17V16.25H6.33165V17Z" fill="white"/>
</svg>
