<svg width="21" height="21" viewBox="0 0 21 21" fill="none" xmlns="http://www.w3.org/2000/svg">
<path d="M10.5 1.5C5.52976 1.5 1.50001 5.52975 1.50001 10.5C1.50001 12.1237 1.92901 13.6447 2.67976 14.9587C2.72938 15.0455 2.76118 15.1412 2.77329 15.2404C2.78539 15.3396 2.77756 15.4401 2.75026 15.5363L1.67101 19.3305L5.46676 18.2505C5.56286 18.2232 5.66345 18.2154 5.76262 18.2275C5.86179 18.2396 5.95755 18.2714 6.04426 18.321C7.4012 19.096 8.93733 19.5025 10.5 19.5C15.471 19.5 19.5 15.4703 19.5 10.5C19.5 5.52975 15.471 1.5 10.5 1.5ZM8.71806e-06 10.5C8.71806e-06 4.701 4.70101 0 10.5 0C16.299 0 21 4.701 21 10.5C21 16.299 16.299 21 10.5 21C8.72401 21 7.04851 20.5583 5.58001 19.7782L1.43401 20.9573C1.24132 21.0119 1.03754 21.0141 0.843722 20.9636C0.649903 20.9131 0.47307 20.8118 0.331488 20.6702C0.189906 20.5285 0.0887075 20.3516 0.0383455 20.1578C-0.0120165 19.9639 -0.0097163 19.7602 0.0450087 19.5675L1.22401 15.4222C0.418163 13.9068 -0.00220754 12.2163 8.71806e-06 10.5ZM6.00001 8.25C6.00001 8.05109 6.07903 7.86032 6.21968 7.71967C6.36033 7.57902 6.5511 7.5 6.75001 7.5H14.25C14.4489 7.5 14.6397 7.57902 14.7803 7.71967C14.921 7.86032 15 8.05109 15 8.25C15 8.44891 14.921 8.63968 14.7803 8.78033C14.6397 8.92098 14.4489 9 14.25 9H6.75001C6.5511 9 6.36033 8.92098 6.21968 8.78033C6.07903 8.63968 6.00001 8.44891 6.00001 8.25ZM6.75001 12C6.5511 12 6.36033 12.079 6.21968 12.2197C6.07903 12.3603 6.00001 12.5511 6.00001 12.75C6.00001 12.9489 6.07903 13.1397 6.21968 13.2803C6.36033 13.421 6.5511 13.5 6.75001 13.5H11.25C11.4489 13.5 11.6397 13.421 11.7803 13.2803C11.921 13.1397 12 12.9489 12 12.75C12 12.5511 11.921 12.3603 11.7803 12.2197C11.6397 12.079 11.4489 12 11.25 12H6.75001Z" fill="#4D0013"/>
</svg>
