<svg width="24" height="24" viewBox="0 0 24 24" fill="none" xmlns="http://www.w3.org/2000/svg">
<path opacity="0.5" d="M12 11.25C11.0054 11.25 10.0516 11.6451 9.34835 12.3483C8.64509 13.0516 8.25 14.0054 8.25 15C8.25 15.9946 8.64509 16.9484 9.34835 17.6517C10.0516 18.3549 11.0054 18.75 12 18.75C12.9946 18.75 13.9484 18.3549 14.6517 17.6517C15.3549 16.9484 15.75 15.9946 15.75 15C15.75 14.0054 15.3549 13.0516 14.6517 12.3483C13.9484 11.6451 12.9946 11.25 12 11.25Z" fill="#4D0013"/>
<path d="M12.0001 5.25C12.199 5.25 12.3898 5.32902 12.5304 5.46967C12.6711 5.61032 12.7501 5.80109 12.7501 6V6.785C13.4801 6.854 14.1481 7.02 14.7561 7.255L15.0931 6.643C15.1406 6.55672 15.2047 6.48065 15.2816 6.41913C15.3586 6.35761 15.4469 6.31185 15.5415 6.28446C15.6361 6.25706 15.7352 6.24858 15.8331 6.25948C15.931 6.27038 16.0258 6.30046 16.1121 6.348C16.1984 6.39554 16.2744 6.45961 16.336 6.53654C16.3975 6.61348 16.4432 6.70178 16.4706 6.7964C16.498 6.89103 16.5065 6.99012 16.4956 7.08802C16.4847 7.18592 16.4546 7.28072 16.4071 7.367L16.0961 7.932C16.6684 8.2972 17.196 8.72813 17.6681 9.216L18.0171 8.924C18.1699 8.79643 18.367 8.73477 18.5653 8.75259C18.7635 8.7704 18.9465 8.86624 19.0741 9.019C19.2017 9.17176 19.2633 9.36895 19.2455 9.56717C19.2277 9.7654 19.1319 9.94843 18.9791 10.076L18.6311 10.366L18.6881 10.445C18.9651 10.837 19.1811 11.199 19.3411 11.491L19.6651 11.329C19.7533 11.2841 19.8495 11.2571 19.9482 11.2496C20.0469 11.242 20.1461 11.2541 20.2401 11.2851C20.3341 11.3161 20.4211 11.3654 20.4959 11.4301C20.5708 11.4949 20.6321 11.5738 20.6763 11.6624C20.7205 11.7509 20.7468 11.8474 20.7536 11.9461C20.7603 12.0449 20.7475 12.144 20.7157 12.2378C20.684 12.3315 20.6341 12.4181 20.5687 12.4924C20.5034 12.5668 20.424 12.6275 20.3351 12.671L19.3351 13.171C19.2425 13.2171 19.1413 13.2436 19.0379 13.2487C18.9346 13.2539 18.8313 13.2376 18.7345 13.2008C18.6378 13.1641 18.5497 13.1078 18.4758 13.0353C18.4019 12.9629 18.3438 12.876 18.3051 12.78L18.3041 12.779V12.777L18.2961 12.761L18.2621 12.682C18.0369 12.2027 17.7699 11.7443 17.4641 11.312C16.8711 10.474 15.9781 9.507 14.7451 8.889C13.8933 8.46251 12.9527 8.24355 12.0001 8.25C11.0474 8.24386 10.1068 8.46317 9.25509 8.89C8.02209 9.507 7.12909 10.474 6.53709 11.311C6.24309 11.727 6.02909 12.101 5.89009 12.371C5.82409 12.4991 5.76206 12.6291 5.70409 12.761L5.69709 12.778C5.65864 12.8744 5.60059 12.9618 5.52662 13.0346C5.45265 13.1074 5.36437 13.1641 5.26736 13.2011C5.17036 13.238 5.06675 13.2544 4.96307 13.2492C4.8594 13.2441 4.75793 13.2174 4.66509 13.171L3.66509 12.671C3.57619 12.6275 3.49679 12.5668 3.43145 12.4924C3.36612 12.4181 3.31615 12.3315 3.28443 12.2378C3.25271 12.144 3.23986 12.0449 3.24663 11.9461C3.25339 11.8474 3.27964 11.7509 3.32385 11.6624C3.36807 11.5738 3.42937 11.4949 3.50424 11.4301C3.5791 11.3654 3.66604 11.3161 3.76005 11.2851C3.85405 11.2541 3.95326 11.242 4.05196 11.2496C4.15065 11.2571 4.24688 11.2841 4.33509 11.329L4.65909 11.491C4.87284 11.102 5.10994 10.7263 5.36909 10.366L5.02209 10.076C4.94645 10.0129 4.88398 9.93552 4.83824 9.84828C4.7925 9.76103 4.7644 9.66563 4.75553 9.56753C4.74666 9.46942 4.75721 9.37053 4.78656 9.2765C4.81591 9.18247 4.86349 9.09514 4.92659 9.0195C4.98969 8.94386 5.06707 8.88139 5.15431 8.83565C5.24156 8.78991 5.33696 8.76181 5.43506 8.75294C5.53317 8.74407 5.63206 8.75462 5.72609 8.78397C5.82012 8.81332 5.90745 8.8609 5.98309 8.924L6.33309 9.216C6.8052 8.72813 7.33279 8.2972 7.90509 7.932L7.59309 7.367C7.54555 7.28072 7.51547 7.18592 7.50457 7.08802C7.49367 6.99012 7.50215 6.89103 7.52955 6.7964C7.55694 6.70178 7.6027 6.61348 7.66422 6.53654C7.72574 6.45961 7.80181 6.39554 7.88809 6.348C7.97437 6.30046 8.06917 6.27038 8.16707 6.25948C8.26497 6.24858 8.36406 6.25706 8.45869 6.28446C8.55331 6.31185 8.64161 6.35761 8.71855 6.41913C8.79548 6.48065 8.85955 6.55672 8.90709 6.643L9.24409 7.255C9.88795 7.0068 10.563 6.84864 11.2501 6.785V6C11.2501 5.80109 11.3291 5.61032 11.4698 5.46967C11.6104 5.32902 11.8012 5.25 12.0001 5.25Z" fill="#4D0013"/>
<path d="M12 11.25C11.0054 11.25 10.0516 11.6451 9.34835 12.3483C8.64509 13.0516 8.25 14.0054 8.25 15C8.25 15.9946 8.64509 16.9484 9.34835 17.6517C10.0516 18.3549 11.0054 18.75 12 18.75C12.9946 18.75 13.9484 18.3549 14.6517 17.6517C15.3549 16.9484 15.75 15.9946 15.75 15C15.75 14.0054 15.3549 13.0516 14.6517 12.3483C13.9484 11.6451 12.9946 11.25 12 11.25ZM9.75 15C9.75 14.4033 9.98705 13.831 10.409 13.409C10.831 12.9871 11.4033 12.75 12 12.75C12.5967 12.75 13.169 12.9871 13.591 13.409C14.0129 13.831 14.25 14.4033 14.25 15C14.25 15.5967 14.0129 16.169 13.591 16.591C13.169 17.0129 12.5967 17.25 12 17.25C11.4033 17.25 10.831 17.0129 10.409 16.591C9.98705 16.169 9.75 15.5967 9.75 15Z" fill="#4D0013"/>
</svg>
