<svg width="17" height="20" viewBox="0 0 17 20" fill="none" xmlns="http://www.w3.org/2000/svg">
<path d="M16.7428 1.84079V12.7208C16.7431 12.8633 16.7029 13.0029 16.6267 13.1233C16.5506 13.2438 16.4417 13.34 16.3128 13.4008C14.8611 14.0988 13.2822 14.4935 11.6728 14.5608C10.3347 14.5899 9.02644 14.1633 7.96282 13.3508C7.15845 12.6954 6.15035 12.3417 5.11282 12.3508C3.86641 12.2752 2.62191 12.5268 1.50282 13.0808V19.2108C1.50282 19.4097 1.4238 19.6005 1.28315 19.7411C1.14249 19.8818 0.951729 19.9608 0.752816 19.9608C0.553904 19.9608 0.363139 19.8818 0.222487 19.7411C0.0818342 19.6005 0.00281647 19.4097 0.00281647 19.2108V1.84079C-0.000938822 1.79086 -0.000938822 1.74072 0.00281647 1.69079C0.0421676 1.50022 0.153122 1.33199 0.312816 1.22079C0.692816 0.900793 2.04282 0.000793116 5.09282 0.000793116C6.42225 -0.0210557 7.71972 0.409084 8.77282 1.22079C9.5776 1.87545 10.5854 2.22907 11.6228 2.22079C13.0099 2.16046 14.3705 1.82031 15.6228 1.22079C15.7371 1.16697 15.8633 1.14331 15.9893 1.15206C16.1154 1.16082 16.2371 1.20169 16.3428 1.27079C16.4517 1.32497 16.5453 1.40548 16.6152 1.50502C16.685 1.60457 16.7289 1.71998 16.7428 1.84079Z" fill="#4D0013"/>
</svg>
