<svg width="20" height="20" viewBox="0 0 20 20" fill="none" xmlns="http://www.w3.org/2000/svg">
<path d="M14.1665 2.02502H5.83317C3.33317 2.02502 1.6665 3.69169 1.6665 6.19169V11.1917C1.6665 13.6917 3.33317 15.3584 5.83317 15.3584V17.1334C5.83317 17.8 6.57484 18.2 7.12484 17.825L10.8332 15.3584H14.1665C16.6665 15.3584 18.3332 13.6917 18.3332 11.1917V6.19169C18.3332 3.69169 16.6665 2.02502 14.1665 2.02502ZM9.99984 12.1667C9.64984 12.1667 9.37484 11.8834 9.37484 11.5417C9.37484 11.2 9.64984 10.9167 9.99984 10.9167C10.3498 10.9167 10.6248 11.2 10.6248 11.5417C10.6248 11.8834 10.3498 12.1667 9.99984 12.1667ZM11.0498 8.70836C10.7248 8.92502 10.6248 9.06669 10.6248 9.30002V9.47502C10.6248 9.81669 10.3415 10.1 9.99984 10.1C9.65817 10.1 9.37484 9.81669 9.37484 9.47502V9.30002C9.37484 8.33336 10.0832 7.85836 10.3498 7.67502C10.6582 7.46669 10.7582 7.32502 10.7582 7.10836C10.7582 6.69169 10.4165 6.35002 9.99984 6.35002C9.58317 6.35002 9.2415 6.69169 9.2415 7.10836C9.2415 7.45002 8.95817 7.73336 8.6165 7.73336C8.27484 7.73336 7.9915 7.45002 7.9915 7.10836C7.9915 6.00002 8.8915 5.10002 9.99984 5.10002C11.1082 5.10002 12.0082 6.00002 12.0082 7.10836C12.0082 8.05836 11.3082 8.53336 11.0498 8.70836Z" fill="#4D0013"/>
</svg>
