<svg width="18" height="18" viewBox="0 0 18 18" fill="none" xmlns="http://www.w3.org/2000/svg">
<path d="M6 18C4.9 18 3.95833 17.6083 3.175 16.825C2.39167 16.0417 2 15.1 2 14V5.825C1.41667 5.60833 0.937667 5.246 0.563 4.738C0.188333 4.23 0.000666667 3.65067 0 3C0 2.16667 0.291667 1.45833 0.875 0.875C1.45833 0.291667 2.16667 0 3 0C3.83333 0 4.54167 0.291667 5.125 0.875C5.70833 1.45833 6 2.16667 6 3C6 3.65 5.81267 4.22933 5.438 4.738C5.06333 5.24667 4.584 5.609 4 5.825V14C4 14.55 4.196 15.021 4.588 15.413C4.98 15.805 5.45067 16.0007 6 16C6.54933 15.9993 7.02033 15.8037 7.413 15.413C7.80567 15.0223 8.00133 14.5513 8 14V4C8 2.9 8.39167 1.95833 9.175 1.175C9.95833 0.391667 10.9 0 12 0C13.1 0 14.0417 0.391667 14.825 1.175C15.6083 1.95833 16 2.9 16 4V12.175C16.5833 12.3917 17.0627 12.7543 17.438 13.263C17.8133 13.7717 18.0007 14.3507 18 15C18 15.8333 17.7083 16.5417 17.125 17.125C16.5417 17.7083 15.8333 18 15 18C14.1667 18 13.4583 17.7083 12.875 17.125C12.2917 16.5417 12 15.8333 12 15C12 14.35 12.1877 13.7667 12.563 13.25C12.9383 12.7333 13.4173 12.375 14 12.175V4C14 3.45 13.8043 2.97933 13.413 2.588C13.0217 2.19667 12.5507 2.00067 12 2C11.4493 1.99933 10.9787 2.19533 10.588 2.588C10.1973 2.98067 10.0013 3.45133 10 4V14C10 15.1 9.60833 16.0417 8.825 16.825C8.04167 17.6083 7.1 18 6 18ZM3 4C3.28333 4 3.521 3.904 3.713 3.712C3.905 3.52 4.00067 3.28267 4 3C3.99933 2.71733 3.90333 2.48 3.712 2.288C3.52067 2.096 3.28333 2 3 2C2.71667 2 2.47933 2.096 2.288 2.288C2.09667 2.48 2.00067 2.71733 2 3C1.99933 3.28267 2.09533 3.52033 2.288 3.713C2.48067 3.90567 2.718 4.00133 3 4ZM15 16C15.2833 16 15.521 15.904 15.713 15.712C15.905 15.52 16.0007 15.2827 16 15C15.9993 14.7173 15.9033 14.48 15.712 14.288C15.5207 14.096 15.2833 14 15 14C14.7167 14 14.4793 14.096 14.288 14.288C14.0967 14.48 14.0007 14.7173 14 15C13.9993 15.2827 14.0953 15.5203 14.288 15.713C14.4807 15.9057 14.718 16.0013 15 16Z" fill="#4D0013"/>
</svg>
