<svg width="20" height="20" viewBox="0 0 20 20" fill="none" xmlns="http://www.w3.org/2000/svg">
<path d="M6.56686 10.0584C6.56686 9.71669 6.8502 9.43335 7.19186 9.43335H11.7585V2.38335C11.7502 1.98335 11.4335 1.66669 11.0335 1.66669C6.1252 1.66669 2.7002 5.09169 2.7002 10C2.7002 14.9084 6.1252 18.3334 11.0335 18.3334C11.4252 18.3334 11.7502 18.0167 11.7502 17.6167V10.675H7.19186C6.84186 10.6834 6.56686 10.4 6.56686 10.0584Z" fill="#4D0013"/>
<path d="M17.1167 9.61668L14.75 7.24167C14.5083 7.00001 14.1083 7.00001 13.8667 7.24167C13.625 7.48334 13.625 7.88334 13.8667 8.12501L15.1667 9.42501H11.75V10.675H15.1583L13.8583 11.975C13.6167 12.2167 13.6167 12.6167 13.8583 12.8583C13.9833 12.9833 14.1417 13.0417 14.3 13.0417C14.4583 13.0417 14.6167 12.9833 14.7417 12.8583L17.1083 10.4833C17.3583 10.25 17.3583 9.85834 17.1167 9.61668Z" fill="#4D0013"/>
</svg>
