<svg width="17" height="23" viewBox="0 0 17 23" fill="none" xmlns="http://www.w3.org/2000/svg">
<path d="M3.75 8.25C3.75 8.05109 3.82902 7.86032 3.96967 7.71967C4.11032 7.57902 4.30109 7.5 4.5 7.5H12C12.1989 7.5 12.3897 7.57902 12.5303 7.71967C12.671 7.86032 12.75 8.05109 12.75 8.25C12.75 8.44891 12.671 8.63968 12.5303 8.78033C12.3897 8.92098 12.1989 9 12 9H4.5C4.30109 9 4.11032 8.92098 3.96967 8.78033C3.82902 8.63968 3.75 8.44891 3.75 8.25ZM4.5 0C4.30109 0 4.11032 0.0790176 3.96967 0.21967C3.82902 0.360322 3.75 0.551088 3.75 0.75C3.75 0.948912 3.82902 1.13968 3.96967 1.28033C4.11032 1.42098 4.30109 1.5 4.5 1.5H5.25V3H3.375C2.47989 3 1.62145 3.35558 0.988515 3.98851C0.355579 4.62145 6.22806e-08 5.47989 6.22806e-08 6.375V17.625C-0.000159359 18.4553 0.305743 19.2565 0.859208 19.8754C1.41267 20.4943 2.17486 20.8875 3 20.9797V21.75C3 21.9489 3.07902 22.1397 3.21967 22.2803C3.36032 22.421 3.55109 22.5 3.75 22.5C3.94891 22.5 4.13968 22.421 4.28033 22.2803C4.42098 22.1397 4.5 21.9489 4.5 21.75V21H12V21.75C12 21.9489 12.079 22.1397 12.2197 22.2803C12.3603 22.421 12.5511 22.5 12.75 22.5C12.9489 22.5 13.1397 22.421 13.2803 22.2803C13.421 22.1397 13.5 21.9489 13.5 21.75V20.9797C14.3251 20.8875 15.0873 20.4943 15.6408 19.8754C16.1943 19.2565 16.5002 18.4553 16.5 17.625V6.375C16.5 5.47989 16.1444 4.62145 15.5115 3.98851C14.8785 3.35558 14.0201 3 13.125 3H11.625V1.5H12C12.1989 1.5 12.3897 1.42098 12.5303 1.28033C12.671 1.13968 12.75 0.948912 12.75 0.75C12.75 0.551088 12.671 0.360322 12.5303 0.21967C12.3897 0.0790176 12.1989 0 12 0H4.5ZM13.125 19.5H3.375C2.87772 19.5 2.40081 19.3025 2.04917 18.9508C1.69754 18.5992 1.5 18.1223 1.5 17.625V6.375C1.5 5.87772 1.69754 5.40081 2.04917 5.04917C2.40081 4.69754 2.87772 4.5 3.375 4.5H13.125C13.6223 4.5 14.0992 4.69754 14.4508 5.04917C14.8025 5.40081 15 5.87772 15 6.375V17.625C15 18.1223 14.8025 18.5992 14.4508 18.9508C14.0992 19.3025 13.6223 19.5 13.125 19.5ZM10.125 1.5V3H6.75V1.5H10.125Z" fill="#4D0013"/>
</svg>
