<svg width="85" height="84" viewBox="0 0 85 84" fill="none" xmlns="http://www.w3.org/2000/svg">
<path d="M46.357 0.889998C43.2708 -0.296666 39.8542 -0.296666 36.768 0.889998L27.6094 4.41094L66.2031 19.2547L79.518 14.1336C78.7394 13.5116 77.8704 13.0121 76.9411 12.6522L46.357 0.889998ZM57.9352 22.4372L19.3414 7.59344L6.18391 12.6522C5.23391 13.0203 4.37495 13.5151 3.60703 14.1366L41.5625 28.7309L57.9352 22.4372ZM0 21.6564C0 20.8212 0.103906 20.0117 0.311719 19.228L38.5938 33.953V49.3489C36.6356 53.1356 35.6174 57.3379 35.625 61.6009C35.625 66.0184 36.6937 70.1836 38.5938 73.853V81.3045C37.9727 81.1632 37.3626 80.9777 36.768 80.7494L6.18391 68.9872C4.364 68.287 2.79896 67.0518 1.69504 65.4444C0.591127 63.8371 0.000150536 61.9329 0 59.983V21.6564ZM62.3438 34.8822C66.3292 34.8779 70.2649 35.7672 73.8613 37.4848C77.4577 39.2023 80.6232 41.7043 83.125 44.8067V21.6564C83.125 20.8212 83.0211 20.0117 82.8133 19.228L44.5312 33.953V41.6866C49.4254 37.2976 55.7699 34.874 62.3438 34.8822ZM62.3438 39.3353C68.249 39.3353 73.9123 41.6811 78.0879 45.8568C82.2635 50.0324 84.6094 55.6957 84.6094 61.6009C84.6094 67.5061 82.2635 73.1695 78.0879 77.3451C73.9123 81.5207 68.249 83.8666 62.3438 83.8666C56.4385 83.8666 50.7752 81.5207 46.5996 77.3451C42.424 73.1695 40.0781 67.5061 40.0781 61.6009C40.0781 55.6957 42.424 50.0324 46.5996 45.8568C50.7752 41.6811 56.4385 39.3353 62.3438 39.3353ZM60.2063 72.0806L75.7922 56.4947C76.0109 56.2908 76.1864 56.045 76.3081 55.7719C76.4298 55.4988 76.4952 55.2039 76.5005 54.905C76.5058 54.606 76.4508 54.3091 76.3388 54.0318C76.2268 53.7546 76.0601 53.5027 75.8487 53.2913C75.6373 53.0799 75.3854 52.9132 75.1082 52.8012C74.8309 52.6892 74.534 52.6342 74.235 52.6395C73.9361 52.6448 73.6412 52.7102 73.3681 52.8319C73.095 52.9536 72.8492 53.129 72.6453 53.3478L58.6328 67.3603L52.7844 61.5119C52.5805 61.2931 52.3347 61.1177 52.0616 60.996C51.7885 60.8743 51.4936 60.8088 51.1947 60.8036C50.8957 60.7983 50.5988 60.8533 50.3215 60.9653C50.0443 61.0772 49.7924 61.2439 49.581 61.4554C49.3695 61.6668 49.2029 61.9186 49.0909 62.1959C48.9789 62.4731 48.9239 62.7701 48.9292 63.069C48.9345 63.368 48.9999 63.6628 49.1216 63.936C49.2433 64.2091 49.4187 64.4549 49.6375 64.6587L57.0594 72.0806C57.4769 72.4976 58.0428 72.7318 58.6328 72.7318C59.2229 72.7318 59.7888 72.4976 60.2063 72.0806Z" fill="white"/>
</svg>
