<svg width="13" height="12" viewBox="0 0 13 12" fill="none" xmlns="http://www.w3.org/2000/svg">
<path d="M5.61944 0.345484C5.76912 -0.115171 6.42082 -0.115172 6.5705 0.345483L7.66657 3.71884C7.73351 3.92485 7.92548 4.06433 8.1421 4.06433H11.6891C12.1734 4.06433 12.3748 4.68414 11.9829 4.96884L9.1134 7.05369C8.93816 7.18101 8.86483 7.40669 8.93176 7.6127L10.0278 10.9861C10.1775 11.4467 9.65027 11.8298 9.25841 11.5451L6.38886 9.46023C6.21362 9.33291 5.97632 9.33291 5.80108 9.46023L2.93153 11.5451C2.53967 11.8298 2.01243 11.4467 2.16211 10.9861L3.25818 7.6127C3.32512 7.40669 3.25179 7.18101 3.07654 7.05369L0.206996 4.96884C-0.184861 4.68414 0.0165266 4.06433 0.500888 4.06433H4.04784C4.26446 4.06433 4.45644 3.92485 4.52337 3.71884L5.61944 0.345484Z" fill="#FF9D68"/>
</svg>
